<?xml version="1.0" encoding="utf-8"?>
<!-- Generator: Adobe Illustrator 25.4.1, SVG Export Plug-In . SVG Version: 6.00 Build 0)  -->
<svg version="1.1" id="Capa_1" xmlns="http://www.w3.org/2000/svg" xmlns:xlink="http://www.w3.org/1999/xlink" x="0px" y="0px"
	 viewBox="0 0 536.52 367.62" style="enable-background:new 0 0 536.52 367.62;" xml:space="preserve">
<style type="text/css">
	.st0{fill:#FFFFFF;}
	.st1{fill:#9679FF;}
	.st2{clip-path:url(#SVGID_00000111872597574421735950000016976110885575823757_);fill:#1A1A1A;}
	.st3{clip-path:url(#SVGID_00000111872597574421735950000016976110885575823757_);fill:#333333;}
	.st4{clip-path:url(#SVGID_00000111872597574421735950000016976110885575823757_);fill:#543DFF;}
	.st5{clip-path:url(#SVGID_00000111872597574421735950000016976110885575823757_);fill:#1D1D1B;}
	
		.st6{clip-path:url(#SVGID_00000111872597574421735950000016976110885575823757_);fill:none;stroke:#000000;stroke-width:7.5287;stroke-miterlimit:10;}
	.st7{clip-path:url(#SVGID_00000111872597574421735950000016976110885575823757_);fill:#9678FF;}
	
		.st8{clip-path:url(#SVGID_00000111872597574421735950000016976110885575823757_);fill:none;stroke:#000000;stroke-width:1.2544;stroke-miterlimit:10;}
	.st9{clip-path:url(#SVGID_00000111872597574421735950000016976110885575823757_);}
	
		.st10{clip-path:url(#SVGID_00000111872597574421735950000016976110885575823757_);fill:none;stroke:#000000;stroke-width:9.4126;stroke-miterlimit:10;}
	.st11{clip-path:url(#SVGID_00000111872597574421735950000016976110885575823757_);fill:#8AE5EE;}
	.st12{fill:#1A1A1A;}
	.st13{fill:#1D1D1B;}
	.st14{fill:none;stroke:#000000;stroke-width:8.4472;stroke-miterlimit:10;}
	.st15{fill:#9678FF;}
	.st16{fill:none;stroke:#000000;stroke-width:1.4079;stroke-miterlimit:10;}
	.st17{fill:none;stroke:#000000;stroke-width:10.5567;stroke-miterlimit:10;}
	.st18{fill:#8AE5EE;}
	.st19{fill:none;}
	.st20{clip-path:url(#SVGID_00000163758916672587556770000007553554766900658617_);}
	.st21{fill:#A8F2F2;}
	.st22{fill:#1C1C1B;stroke:#012336;stroke-width:8.7402;stroke-miterlimit:10;}
	.st23{stroke:#FFFFFF;stroke-width:4;stroke-miterlimit:10;}
	.st24{fill:none;stroke:#000000;stroke-width:10;stroke-miterlimit:10;}
</style>
<ellipse transform="matrix(0.1602 -0.9871 0.9871 0.1602 -214.5995 340.9949)" class="st1" cx="93.1" cy="296.61" rx="54.31" ry="54.31"/>
<path d="M251.66,257.32v15.79c0,12.87-10.51,23.34-23.44,23.34h-13.67c-1.97,0-3.88,0.65-5.43,1.85l-24.06,18.58v-11.54
	c0-4.91-3.98-8.89-8.89-8.89h-38.52c-1.06,4.7-3.23,8.48-6.14,11.41c-0.44,2.13-0.98,4.25-1.55,6.37h37.31v20.75
	c0,7.13,8.66,11.41,14.33,7.04l35.99-27.79h10.63c22.73,0,41.22-18.45,41.22-41.12v-15.79
	C269.44,245.85,251.66,245.85,251.66,257.32z"/>
<path d="M228.22,116.83c0,0-97.12-0.65-97.18,0h-18.34c-20.21,0-37.05,14.58-40.54,33.75c-0.81,0.3-0.67,22.5-0.67,22.5v55.31
	c0.04,0.04,0.08,0.08,0.12,0.12c1.96,2.15,7.84,0.78,10.42,0.61c2.41-0.16,4.84-0.31,7.25-0.18v-70.98
	c0-12.87,10.51-23.34,23.44-23.34h115.51c12.92,0,23.44,10.47,23.44,23.34v43.65c0,11.47,17.78,11.47,17.78,0v-43.65
	C269.44,135.27,250.95,116.83,228.22,116.83z"/>
<path d="M440.91,24.01c11.09,0,20.1,8.98,20.1,20.02v45.25c5.11,1.08,10.3,1.86,15.25,3.47V57.01c0,0,0.11-19.04-0.58-19.3
	c-3-16.44-17.45-28.95-34.78-28.95h-15.73c-0.05-0.56-159.81,0-159.81,0c-19.5,0-35.36,15.82-35.36,35.27v37.44
	c0,9.84,15.26,9.84,15.26,0V44.03c0-11.04,9.02-20.02,20.1-20.02H440.91z"/>
<path d="M393.3,162.84h-83.27c-4.21,0-7.63,3.42-7.63,7.63v9.9l-20.64-15.94c-1.33-1.03-2.97-1.59-4.66-1.59h-10.56
	c0.55,5.11,0.11,10.5-1.43,15.25c0.09,0,0.18,0.01,0.27,0.01h9.12l30.87,23.84c4.86,3.75,12.29,0.08,12.29-6.04v-17.8h81.42
	C395.98,173.63,393.86,168.58,393.3,162.84z"/>
<path d="M219.89,197.39h-98.43c-4.96,0-8.98-4.02-8.98-8.98v0c0-4.96,4.02-8.98,8.98-8.98h98.43c4.96,0,8.98,4.02,8.98,8.98v0
	C228.87,193.37,224.85,197.39,219.89,197.39z"/>
<path d="M118.06,257.99c-2.83-2.63-7.25-2.46-9.88,0.37l-47.31,51.01L44,293.06c-2.63-2.83-7.05-3-9.88-0.37
	c-2.83,2.63-3,7.05-0.37,9.88l22.23,21.5c1.39,1.5,3.28,2.24,5.17,2.23c1.89,0.01,3.78-0.73,5.17-2.23l52.11-56.19
	C121.06,265.04,120.89,260.62,118.06,257.99z"/>
<path d="M419.42,101.62h-127.7c-4.96,0-8.98-4.02-8.98-8.98v0c0-4.96,4.02-8.98,8.98-8.98h127.7c4.96,0,8.98,4.02,8.98,8.98v0
	C428.4,97.6,424.38,101.62,419.42,101.62z"/>
<path d="M395.66,131.24c-3.08-1.3-4.96-5.19-1.7-7.82c2.88-2.32,5.84-4.48,8.88-6.5H291.72c-4.96,0-8.98,4.02-8.98,8.98v0
	c0,4.96,4.02,8.98,8.98,8.98h102.75C394.81,133.64,395.2,132.43,395.66,131.24z"/>
<path d="M419.42,67.03h-127.7c-4.96,0-8.98-4.02-8.98-8.98v0c0-4.96,4.02-8.98,8.98-8.98h127.7c4.96,0,8.98,4.02,8.98,8.98v0
	C428.4,63.01,424.38,67.03,419.42,67.03z"/>
<path d="M481.98,182.06l-57.16-53.93c-2.22-2.09-2.7-6.1-1.07-8.96v0c1.63-2.85,4.75-3.47,6.97-1.37l57.16,53.93
	c2.22,2.09,2.7,6.1,1.07,8.96v0C487.32,183.54,484.2,184.15,481.98,182.06z"/>
<path d="M430.72,182.06l57.16-53.93c2.22-2.09,2.7-6.1,1.07-8.96v0c-1.63-2.85-4.75-3.47-6.97-1.37l-57.16,53.93
	c-2.22,2.09-2.7,6.1-1.07,8.96v0C425.38,183.54,428.5,184.15,430.72,182.06z"/>
<path d="M219.89,229.98h-98.43c-4.96,0-8.98-4.02-8.98-8.98v0c0-4.96,4.02-8.98,8.98-8.98h98.43c4.96,0,8.98,4.02,8.98,8.98v0
	C228.87,225.96,224.85,229.98,219.89,229.98z"/>
<path d="M219.89,259.91h-86.3c-4.96,0-8.98-4.02-8.98-8.98v0c0-4.96,4.02-8.98,8.98-8.98h86.3c4.96,0,8.98,4.02,8.98,8.98v0
	C228.87,255.89,224.85,259.91,219.89,259.91z"/>
<path d="M78.72,359.94c-38.71,0-70.21-31.5-70.21-70.21s31.5-70.21,70.21-70.21c38.71,0,70.21,31.5,70.21,70.21
	S117.43,359.94,78.72,359.94z M78.72,235.52c-29.89,0-54.21,24.32-54.21,54.21s24.32,54.21,54.21,54.21
	c29.89,0,54.21-24.32,54.21-54.21S108.61,235.52,78.72,235.52z"/>
<path d="M507.17,201.18C432.36,258.68,347,173.32,404.5,98.51c0,0,0,0,0,0C479.32,40.99,564.69,126.36,507.17,201.18z M495.47,110.2
	c-57.77-44.4-123.67,21.51-79.27,79.27C473.97,233.88,539.88,167.97,495.47,110.2z"/>
</svg>
