<svg height="512pt" viewBox="-5 0 511 512" width="512pt" xmlns="http://www.w3.org/2000/svg"><path d="m501.5 30h-71v-30h-430v512h430v-152h60v-200h11zm-471 452v-452h30v452zm441-422v70h-41v-70zm-71 422h-310v-452h310zm60-152h-30v-70h30zm0-100h-30v-70h30zm0 0"/><path d="m183.5 244c-16.027344 0-31.09375 6.242188-42.425781 17.574219s-17.574219 26.398437-17.574219 42.425781 6.242188 31.09375 17.574219 42.425781l42.425781 42.425781 42.425781-42.425781c11.332031-11.332031 17.574219-26.398437 17.574219-42.425781s-6.242188-31.09375-17.574219-42.425781-26.398437-17.574219-42.425781-17.574219zm21.214844 81.214844-21.214844 21.210937-21.214844-21.210937c-5.664062-5.667969-8.785156-13.203125-8.785156-21.214844s3.121094-15.546875 8.785156-21.214844c5.667969-5.664062 13.203125-8.785156 21.214844-8.785156s15.546875 3.121094 21.214844 8.785156c5.664062 5.667969 8.785156 13.203125 8.785156 21.214844s-3.121094 15.546875-8.785156 21.214844zm0 0"/><path d="m325.5 299h-5c-24.8125 0-45 20.1875-45 45s20.1875 45 45 45h5c8.269531 0 15 6.730469 15 15s-6.730469 15-15 15h-142v30h142c24.8125 0 45-20.1875 45-45s-20.1875-45-45-45h-5c-8.269531 0-15-6.730469-15-15s6.730469-15 15-15h5c24.8125 0 45-20.1875 45-45s-20.1875-45-45-45h-5c-8.269531 0-15-6.730469-15-15v-54h-30v54c0 24.8125 20.1875 45 45 45h5c8.269531 0 15 6.730469 15 15s-6.730469 15-15 15zm0 0"/><path d="m296.75 154.960938 24.75-24.746094 24.75 24.746094 21.210938-21.210938-24.746094-24.75 24.746094-24.75-21.210938-21.210938-24.75 24.746094-24.75-24.746094-21.210938 21.210938 24.746094 24.75-24.746094 24.75zm0 0"/><path d="m120.5 70h80v30h-80zm0 0"/><path d="m120.5 130h110v30h-110zm0 0"/></svg>