<?xml version="1.0" encoding="utf-8"?>
<!-- Generator: Adobe Illustrator 25.4.1, SVG Export Plug-In . SVG Version: 6.00 Build 0)  -->
<svg version="1.1" id="Capa_1" xmlns="http://www.w3.org/2000/svg" xmlns:xlink="http://www.w3.org/1999/xlink" x="0px" y="0px"
	 viewBox="0 0 997.62 728.26" style="enable-background:new 0 0 997.62 728.26;" xml:space="preserve">
<style type="text/css">
	.st0{fill:#FFFFFF;}
	.st1{fill:#9679FF;}
	.st2{clip-path:url(#SVGID_00000183242763295899385520000015900881468378462885_);fill:#1A1A1A;}
	.st3{clip-path:url(#SVGID_00000183242763295899385520000015900881468378462885_);fill:#333333;}
	.st4{clip-path:url(#SVGID_00000183242763295899385520000015900881468378462885_);fill:#543DFF;}
	.st5{clip-path:url(#SVGID_00000183242763295899385520000015900881468378462885_);fill:#1D1D1B;}
	
		.st6{clip-path:url(#SVGID_00000183242763295899385520000015900881468378462885_);fill:none;stroke:#000000;stroke-width:7.5287;stroke-miterlimit:10;}
	.st7{clip-path:url(#SVGID_00000183242763295899385520000015900881468378462885_);fill:#9678FF;}
	
		.st8{clip-path:url(#SVGID_00000183242763295899385520000015900881468378462885_);fill:none;stroke:#000000;stroke-width:1.2544;stroke-miterlimit:10;}
	.st9{clip-path:url(#SVGID_00000183242763295899385520000015900881468378462885_);}
	
		.st10{clip-path:url(#SVGID_00000183242763295899385520000015900881468378462885_);fill:none;stroke:#000000;stroke-width:9.4126;stroke-miterlimit:10;}
	.st11{clip-path:url(#SVGID_00000183242763295899385520000015900881468378462885_);fill:#8AE5EE;}
	.st12{fill:#1A1A1A;}
	.st13{fill:#1D1D1B;}
	.st14{fill:none;stroke:#000000;stroke-width:8.4472;stroke-miterlimit:10;}
	.st15{fill:#9678FF;}
	.st16{fill:none;stroke:#000000;stroke-width:1.4079;stroke-miterlimit:10;}
	.st17{fill:none;stroke:#000000;stroke-width:10.5567;stroke-miterlimit:10;}
	.st18{fill:#8AE5EE;}
	.st19{fill:none;}
	.st20{clip-path:url(#SVGID_00000026127495345033144230000004743336997595180186_);}
	.st21{fill:#A8F2F2;}
	.st22{fill:#1C1C1B;stroke:#012336;stroke-width:8.7402;stroke-miterlimit:10;}
	.st23{stroke:#FFFFFF;stroke-width:4;stroke-miterlimit:10;}
	.st24{fill:none;stroke:#000000;stroke-width:10;stroke-miterlimit:10;}
</style>
<ellipse transform="matrix(0.1602 -0.9871 0.9871 0.1602 11.4748 372.2422)" class="st1" cx="224.5" cy="179.38" rx="81.86" ry="81.86"/>
<path d="M335.25,109.75V70.47c0-20.4-16.64-37-37.09-37h-71.37c0-0.06-118.51-0.3-118.54,0h-16.5c-18.18,0-33.34,13.12-36.48,30.37
	c-0.73,0.27-0.61,20.24-0.61,20.24v90c0,20.4,16.64,37,37.09,37h151.58v18.67c0,6.42,7.79,10.27,12.89,6.33l32.38-25h9.57
	c20.45,0,37.09-16.6,37.09-37v-14.2c0-10.32-16-10.32-16,0v14.2c0,11.58-9.46,21-21.09,21h-12.3c-1.77,0-3.49,0.59-4.89,1.67
	l-21.65,16.72v-10.38c0-4.42-3.58-8-8-8H91.75c-11.63,0-21.09-9.42-21.09-21V70.47c0-11.58,9.46-21,21.09-21h206.42
	c11.63,0,21.09,9.42,21.09,21v39.28C319.25,120.07,335.25,120.07,335.25,109.75z"/>
<g>
	<g>
		<path d="M429.98,616.5h-28.74c-8.75,0-15.87,7.12-15.87,15.87v19.91c0,14.74,13.45,26.74,29.99,26.74h0.51
			c16.53,0,29.99-11.99,29.99-26.74v-19.91C445.85,623.62,438.73,616.5,429.98,616.5z M430.85,652.28c0,6.36-6.86,11.74-14.99,11.74
			h-0.51c-8.12,0-14.99-5.38-14.99-11.74c0.36-19.07-0.79-20.78,0.87-20.78h28.74c0.48,0,0.87,0.39,0.87,0.87V652.28z"/>
	</g>
</g>
<g>
	<g>
		<path d="M544.81,676.02l-8.43-42.35c-0.81-4.06-4.76-6.7-8.82-5.89c-4.06,0.81-6.7,4.76-5.89,8.82l8.39,42.13
			c0.39,2.89,0.82,9.55-2.61,13.5c-5.85,6.74-18.44,3.27-50.58,4.21v-70.69c0-4.14-3.36-7.5-7.5-7.5s-7.5,3.36-7.5,7.5v70.69H260
			v-70.69c0-4.14-3.36-7.5-7.5-7.5s-7.5,3.36-7.5,7.5v70.69h-37.88c-12.17,0-17.24-5.34-15.58-17.71l21.81-109.53
			c4.74-23.74,26.75-27.56,27.93-28.1l74.79-18.44c12.13,45.88,77.58,45.5,89.5-0.09l74.75,18.53c1.28,0.59,23.21,4.44,27.93,28.1
			l6.48,32.56c0.81,4.06,4.76,6.7,8.82,5.89c4.06-0.81,6.7-4.76,5.89-8.82l-6.48-32.56c-4.82-24.14-22.39-34.02-32.43-37.77
			c-5.28-1.94-29.67-7.5-83.46-21v-11.57c31.8-16.62,53.28-49.91,53.28-88.15v-1.38c25.09-4.64,36.69-30.02,22.42-48.37v-53.24
			c0-0.65-0.09-16.05-7.81-33.33c-7.21-16.15-22.62-37.09-55.12-45.15c-24.67-6.12-38.2-15.05-45.22-21.46
			c-7.88-7.2-19.77-7.2-27.65,0c-7.02,6.41-20.55,15.34-45.22,21.46c-15.06,3.74-27.81,10.58-37.91,20.34
			c-2.98,2.88-3.06,7.63-0.18,10.61c2.88,2.98,7.63,3.06,10.6,0.18c8.18-7.9,18.64-13.47,31.1-16.56
			c27.72-6.88,43.43-17.37,51.73-24.95c2.11-1.93,5.3-1.93,7.41,0c8.3,7.58,24,18.07,51.73,24.95
			c50.67,12.58,51.53,61.86,51.54,63.93v42.2c-2.35-0.93-4.83-1.66-7.42-2.13c-0.64-3.22,3.88-22.94-14.4-32.36c0,0,0,0,0,0
			c-77.05-39.73-144.49-14.16-169.92-1.32c-8.96,4.53-14.53,13.59-14.53,23.65v10.03c-2.68,0.5-5.26,1.26-7.68,2.24
			c0.08-41.03-1.36-47.13,3.89-62.8c1.32-3.93-0.8-8.18-4.73-9.49c-3.93-1.32-8.18,0.8-9.49,4.73c-4.61,13.77-4.66,24.8-4.66,25.26
			v53.6c-13.96,18.49-2.02,43.44,22.68,48.01c0.13,0.63-1.97,41.54,31.35,73.34c6.61,6.31,13.89,11.57,21.67,15.76v12.1
			c-80.55,19.86-76.97,18.97-77.33,19.08c-0.43,0.2-31.84,5.96-38.55,39.6l-21.85,109.75c-0.03,0.14-0.05,0.27-0.07,0.41
			c-2.87,20.27,7.84,35.01,30.4,35.01h307.35c10.72,0,18.89-3.15,24.29-9.38C544.93,694.96,546.4,683.97,544.81,676.02z
			 M460.35,360.23c18.15,5.4,18.07,25.4,0,30.77V360.23z M261.51,391c-18.11-5.38-18.1-25.39,0-30.77V391z M392,512.87
			c-1.03,16.41-14.74,29.27-31.2,29.27c-16.39,0-30.08-12.79-31.19-29.13c-0.15-2.22-0.06-6.09-0.09-10.92
			c19.6,6.55,41.69,7,62.54,0.16C392.04,507.4,392.14,510.73,392,512.87z M276.51,406.47c0-16.51,0-55.06,0-71.65
			c0-4.37,2.41-8.3,6.29-10.26c14.02-7.08,41.96-18.38,77.39-18.38c23.6,0,50.54,5.02,78.89,19.64c3.87,2,6.27,5.93,6.27,10.26
			c0,21.97,0,50.7,0,71.7c0,31.05-16.94,61.62-49.23,76.58C338.96,510.86,276.51,467.36,276.51,406.47z"/>
	</g>
</g>
<path d="M942.23,590.28V319.9c-0.03-21.32-17.3-38.6-38.63-38.63v-30.9c0-17.07-13.83-30.9-30.9-30.9H579.16
	c-17.07,0-30.9,13.83-30.9,30.9v30.9c-21.32,0.03-38.6,17.3-38.63,38.63v235.51c2.41-0.67,5.05,0.39,6.04,3.34
	c3.45,10.37,6.69,20.78,9.41,31.32V319.9c0-12.8,10.38-23.18,23.18-23.18v169.95c0,17.07,13.83,30.9,30.9,30.9h30.9v58.48
	c0,10.36,8.4,18.76,18.77,18.76c4.98,0,9.76-1.98,13.28-5.51l71.59-71.74h159.02c17.07,0,30.9-13.83,30.9-30.9V296.73
	c12.8,0,23.18,10.38,23.18,23.18v270.38H525.13c1.32,5.12,2.52,10.26,3.55,15.45h112.27v7.73c0,17.07,13.83,30.9,30.9,30.9h108.15
	c17.07,0,30.9-13.83,30.9-30.9v-7.73h131.33v23.18c-0.03,21.32-17.3,38.6-38.63,38.63H548.25c-3.6,0-7.08-0.51-10.38-1.43
	c1.26,5.36,2.06,10.79,2.1,16.24c2.7,0.42,5.46,0.64,8.28,0.64h355.35c29.85-0.03,54.04-24.22,54.08-54.08v-23.18
	C957.68,597.2,950.77,590.28,942.23,590.28z M888.16,466.68c0,8.53-6.92,15.45-15.45,15.45H710.48c-2.05,0-4.02,0.82-5.47,2.27
	l-73.85,74c-0.91,1-2.37,1.29-3.6,0.71c-1.27-0.47-2.1-1.7-2.06-3.06v-66.2c0-4.27-3.46-7.73-7.73-7.73h-38.63
	c-8.53,0-15.45-6.92-15.45-15.45v-216.3c0-8.53,6.92-15.45,15.45-15.45h293.55c8.53,0,15.45,6.92,15.45,15.45V466.68z
	 M795.46,613.46c0,8.53-6.92,15.45-15.45,15.45H671.86c-8.53,0-15.45-6.92-15.45-15.45v-7.73h139.05V613.46z"/>
<path d="M617.78,621.18h-23.18c-4.27,0-7.73,3.46-7.73,7.73c0,4.27,3.46,7.73,7.73,7.73h23.18c4.27,0,7.73-3.46,7.73-7.73
	C625.51,624.64,622.05,621.18,617.78,621.18z"/>
<circle cx="532.8" cy="628.91" r="7.73"/>
<circle cx="563.71" cy="628.91" r="7.73"/>
<path d="M702.76,296.73c4.27,0,7.73-3.46,7.73-7.73c0-8.53,6.92-15.45,15.45-15.45c8.53,0,15.45,6.92,15.45,15.45
	s-6.92,15.45-15.45,15.45c-4.27,0-7.73,3.46-7.73,7.73v15.45c0,4.27,3.46,7.73,7.73,7.73c4.27,0,7.73-3.46,7.73-7.73v-8.71
	c16.52-4.27,26.46-21.12,22.19-37.64s-21.12-26.46-37.64-22.19c-13.64,3.52-23.18,15.83-23.18,29.92
	C695.03,293.27,698.49,296.73,702.76,296.73z"/>
<circle cx="725.93" cy="358.53" r="7.73"/>
<path d="M602.33,404.88h247.2c4.27,0,7.73-3.46,7.73-7.73s-3.46-7.73-7.73-7.73h-247.2c-4.27,0-7.73,3.46-7.73,7.73
	S598.06,404.88,602.33,404.88z"/>
<path d="M602.33,443.5h185.4c4.27,0,7.73-3.46,7.73-7.73s-3.46-7.73-7.73-7.73h-185.4c-4.27,0-7.73,3.46-7.73,7.73
	S598.06,443.5,602.33,443.5z"/>
<path d="M165.03,81.65c-1.42-1.96-0.99-4.7,0.97-6.12c1.96-1.42,4.7-0.99,6.12,0.96s0.99,4.7-0.97,6.12
	c-0.78,0.57-1.68,0.84-2.57,0.84C167.22,83.45,165.89,82.82,165.03,81.65z M148.43,109.07c0.45,0.14,0.9,0.21,1.35,0.21
	c1.85,0,3.56-1.18,4.17-3.03c0.75-2.3-0.51-4.77-2.81-5.52c-2.3-0.75-4.77,0.51-5.52,2.81
	C144.87,105.85,146.13,108.32,148.43,109.07z M182.97,76.1c0.45,0,0.9-0.07,1.35-0.22c2.3-0.75,3.56-3.22,2.81-5.52
	c-0.75-2.3-3.21-3.56-5.52-2.81c-2.3,0.75-3.56,3.22-2.81,5.52C179.41,74.93,181.12,76.1,182.97,76.1z M154.56,94.04
	c0.78,0.57,1.68,0.84,2.58,0.84c1.35,0,2.69-0.62,3.54-1.8c1.42-1.96,0.99-4.7-0.96-6.12s-4.7-0.99-6.12,0.96
	C152.17,89.88,152.6,92.62,154.56,94.04z M142.97,121.74c0.03,0.14,0.06,0.28,0.11,0.42c0.04,0.14,0.09,0.27,0.14,0.4
	c0.05,0.13,0.12,0.26,0.18,0.39c0.07,0.12,0.14,0.25,0.22,0.37c0.08,0.12,0.16,0.24,0.26,0.35c0.09,0.11,0.19,0.22,0.29,0.32
	c0.1,0.1,0.21,0.2,0.32,0.29c0.11,0.09,0.23,0.18,0.35,0.26c0.12,0.08,0.24,0.15,0.37,0.22c0.12,0.07,0.26,0.13,0.39,0.18
	c0.13,0.05,0.27,0.1,0.4,0.14c0.14,0.04,0.28,0.08,0.42,0.11c0.14,0.03,0.28,0.05,0.42,0.06c0.14,0.02,0.29,0.02,0.43,0.02
	c0.14,0,0.29-0.01,0.43-0.02c0.14-0.02,0.28-0.04,0.42-0.06c0.14-0.03,0.28-0.06,0.42-0.11c0.14-0.04,0.27-0.09,0.4-0.14
	c0.13-0.05,0.26-0.12,0.39-0.18c0.12-0.07,0.25-0.14,0.37-0.22c0.12-0.08,0.24-0.17,0.35-0.26c0.11-0.09,0.22-0.19,0.32-0.29
	c0.1-0.1,0.2-0.21,0.29-0.32c0.09-0.11,0.18-0.23,0.26-0.35c0.08-0.12,0.15-0.24,0.22-0.37c0.07-0.12,0.13-0.26,0.18-0.39
	c0.05-0.13,0.1-0.27,0.14-0.4c0.04-0.14,0.08-0.28,0.1-0.42c0.03-0.14,0.05-0.28,0.06-0.42c0.01-0.14,0.02-0.29,0.02-0.43
	s-0.01-0.29-0.02-0.43c-0.02-0.14-0.03-0.28-0.06-0.42c-0.03-0.14-0.06-0.28-0.1-0.42c-0.04-0.14-0.09-0.27-0.14-0.4
	c-0.05-0.13-0.12-0.26-0.18-0.39c-0.07-0.12-0.14-0.25-0.22-0.37c-0.08-0.12-0.17-0.24-0.26-0.35c-0.09-0.11-0.19-0.22-0.29-0.32
	c-0.1-0.1-0.21-0.2-0.32-0.29c-0.11-0.09-0.23-0.18-0.35-0.26c-0.12-0.08-0.24-0.15-0.37-0.22c-0.12-0.07-0.26-0.13-0.39-0.18
	c-0.13-0.05-0.27-0.1-0.4-0.14c-0.14-0.04-0.28-0.08-0.42-0.11c-0.14-0.03-0.28-0.05-0.42-0.06c-0.29-0.03-0.58-0.03-0.86,0
	c-0.14,0.02-0.28,0.04-0.42,0.06c-0.14,0.03-0.28,0.06-0.42,0.11c-0.14,0.04-0.27,0.09-0.4,0.14c-0.13,0.05-0.26,0.12-0.39,0.18
	c-0.12,0.07-0.25,0.14-0.37,0.22c-0.12,0.08-0.24,0.16-0.35,0.26c-0.11,0.09-0.22,0.19-0.32,0.29c-0.1,0.1-0.2,0.21-0.29,0.32
	c-0.09,0.11-0.18,0.23-0.26,0.35c-0.08,0.12-0.15,0.24-0.22,0.37c-0.07,0.12-0.13,0.26-0.18,0.39c-0.05,0.13-0.1,0.27-0.14,0.4
	c-0.04,0.14-0.08,0.28-0.11,0.42c-0.03,0.14-0.05,0.28-0.06,0.42c-0.02,0.14-0.02,0.29-0.02,0.43s0.01,0.29,0.02,0.43
	C142.92,121.46,142.94,121.6,142.97,121.74z M250.85,74.9c-2.42,0-4.38,1.96-4.38,4.38v11.85c-4.33-6.91-10.14-12.82-17.05-17.3
	c-9.07-5.89-19.61-9-30.47-9c-0.16,0-0.33,0.01-0.49,0.03c-0.12,0.01-0.24,0.03-0.35,0.05c-0.48,0.09-0.93,0.27-1.34,0.5
	c-0.07,0.04-0.15,0.09-0.22,0.13c-0.15,0.1-0.29,0.2-0.42,0.32c-0.09,0.07-0.18,0.15-0.26,0.24c-0.01,0.01-0.02,0.02-0.03,0.03
	c-0.08,0.08-0.16,0.17-0.23,0.26c-0.12,0.14-0.22,0.28-0.32,0.43c-0.04,0.07-0.09,0.14-0.13,0.21c-0.24,0.41-0.41,0.86-0.5,1.34
	c-0.02,0.12-0.04,0.23-0.05,0.35c0,0.02-0.01,0.04-0.01,0.06c-0.02,0.14-0.02,0.29-0.02,0.43c0,0.14,0.01,0.29,0.02,0.43
	c0,0.02,0,0.04,0.01,0.06c0.01,0.12,0.03,0.23,0.05,0.35c0.09,0.48,0.27,0.93,0.5,1.34c0.04,0.07,0.08,0.14,0.13,0.21
	c0.1,0.15,0.21,0.3,0.32,0.44c0.07,0.09,0.15,0.17,0.23,0.25c0.01,0.01,0.02,0.02,0.04,0.04c0.08,0.08,0.17,0.16,0.26,0.23
	c0.02,0.02,0.05,0.04,0.07,0.06c0.08,0.06,0.16,0.13,0.25,0.19c0.04,0.03,0.07,0.05,0.11,0.07c0.07,0.04,0.14,0.09,0.21,0.13
	c0.41,0.24,0.86,0.41,1.34,0.5c0.11,0.02,0.23,0.04,0.34,0.05c0.02,0,0.04,0.01,0.06,0.01c0.14,0.01,0.29,0.02,0.43,0.02
	c16.56,0,31.93,8.79,40.44,22.76l-10.01,0.02c-2.42,0-4.38,1.97-4.37,4.39c0,2.42,1.96,4.37,4.38,4.37c0,0,0,0,0.01,0l12.81-0.02
	c0.01,0,0.03,0,0.04,0c3.47,0,6.71-1.34,9.14-3.77c2.49-2.49,3.85-5.83,3.84-9.39V79.28C255.23,76.86,253.27,74.9,250.85,74.9z
	 M249.68,132.71c-2.3-0.75-4.77,0.51-5.52,2.81c-0.75,2.3,0.51,4.77,2.81,5.52c0.45,0.14,0.91,0.21,1.36,0.21
	c1.85,0,3.56-1.18,4.16-3.03C253.24,135.93,251.98,133.46,249.68,132.71z M213.79,165.89c-2.3,0.75-3.56,3.22-2.81,5.52
	c0.6,1.85,2.32,3.03,4.17,3.03c0.45,0,0.9-0.07,1.35-0.22c2.3-0.75,3.56-3.22,2.81-5.52C218.56,166.4,216.09,165.14,213.79,165.89z
	 M243.55,147.73c-1.96-1.42-4.7-0.99-6.12,0.96c-1.42,1.96-0.99,4.7,0.96,6.12c0.78,0.56,1.68,0.84,2.58,0.84
	c1.35,0,2.69-0.62,3.55-1.8C245.94,151.89,245.51,149.15,243.55,147.73z M226.96,159.16c-1.96,1.42-2.39,4.16-0.96,6.12
	c0.86,1.18,2.19,1.8,3.55,1.8c0.89,0,1.8-0.27,2.57-0.84c1.96-1.42,2.39-4.16,0.96-6.12C231.66,158.17,228.92,157.74,226.96,159.16z
	 M255.14,120.03c-0.03-0.14-0.06-0.28-0.1-0.42c-0.04-0.14-0.09-0.27-0.14-0.4c-0.05-0.13-0.12-0.26-0.18-0.39
	c-0.07-0.12-0.14-0.25-0.22-0.37c-0.08-0.12-0.17-0.24-0.26-0.35c-0.09-0.11-0.19-0.22-0.29-0.32c-0.1-0.1-0.21-0.2-0.32-0.29
	c-0.11-0.09-0.23-0.18-0.35-0.26c-0.12-0.08-0.24-0.15-0.37-0.22c-0.12-0.07-0.26-0.13-0.39-0.18c-0.13-0.05-0.27-0.1-0.4-0.14
	c-0.14-0.04-0.28-0.08-0.42-0.11c-0.14-0.03-0.28-0.05-0.42-0.06c-0.29-0.03-0.58-0.03-0.86,0c-0.14,0.02-0.28,0.04-0.42,0.06
	c-0.14,0.03-0.28,0.06-0.42,0.11c-0.14,0.04-0.27,0.09-0.4,0.14c-0.13,0.05-0.26,0.12-0.39,0.18c-0.12,0.07-0.25,0.14-0.37,0.22
	c-0.12,0.08-0.24,0.17-0.35,0.26c-0.11,0.09-0.22,0.19-0.32,0.29c-0.1,0.1-0.2,0.21-0.29,0.32c-0.09,0.11-0.18,0.23-0.26,0.35
	c-0.08,0.12-0.15,0.24-0.22,0.37c-0.07,0.12-0.13,0.26-0.18,0.39c-0.05,0.13-0.1,0.27-0.14,0.4c-0.04,0.14-0.08,0.28-0.11,0.42
	c-0.03,0.14-0.05,0.28-0.06,0.42c-0.02,0.14-0.02,0.29-0.02,0.43c0,1.15,0.47,2.28,1.28,3.1c0.1,0.1,0.21,0.2,0.32,0.29
	c0.11,0.09,0.23,0.18,0.35,0.26c0.12,0.08,0.24,0.15,0.37,0.22c0.12,0.07,0.26,0.13,0.39,0.18c0.13,0.05,0.27,0.1,0.4,0.14
	c0.14,0.04,0.28,0.08,0.42,0.11c0.14,0.03,0.28,0.05,0.42,0.06c0.14,0.02,0.29,0.02,0.43,0.02c0.14,0,0.29-0.01,0.43-0.02
	c0.14-0.01,0.28-0.04,0.42-0.06c0.14-0.03,0.28-0.06,0.42-0.11c0.14-0.04,0.27-0.09,0.4-0.14c0.13-0.05,0.26-0.12,0.39-0.18
	c0.12-0.07,0.25-0.14,0.37-0.22c0.12-0.08,0.24-0.17,0.35-0.26c0.11-0.09,0.22-0.19,0.32-0.29c0.81-0.81,1.28-1.94,1.28-3.1
	c0-0.14-0.01-0.29-0.02-0.43C255.19,120.32,255.17,120.17,255.14,120.03z M203.55,172.57c0-0.14-0.01-0.28-0.02-0.42
	c0-0.02-0.01-0.05-0.01-0.07c-0.01-0.11-0.03-0.23-0.05-0.34c-0.09-0.48-0.27-0.94-0.5-1.35c-0.04-0.07-0.08-0.14-0.13-0.21
	c-0.03-0.04-0.05-0.08-0.08-0.12c-0.06-0.08-0.12-0.16-0.18-0.24c-0.02-0.03-0.04-0.05-0.06-0.08c-0.07-0.09-0.15-0.17-0.23-0.25
	c-0.02-0.02-0.03-0.03-0.05-0.05c-0.08-0.08-0.16-0.15-0.25-0.22c-0.03-0.02-0.05-0.05-0.08-0.07c-0.08-0.06-0.16-0.12-0.24-0.18
	c-0.04-0.03-0.08-0.05-0.12-0.08c-0.07-0.04-0.14-0.08-0.2-0.12c-0.41-0.24-0.87-0.41-1.35-0.5c-0.11-0.02-0.22-0.04-0.33-0.05
	c-0.16-0.02-0.33-0.03-0.5-0.03c-16.56,0-31.93-8.79-40.44-22.76l10.01-0.02c2.42,0,4.38-1.97,4.37-4.39c0-2.42-1.96-4.37-4.38-4.37
	c0,0,0,0-0.01,0l-12.81,0.02c-0.01,0-0.03,0-0.04,0c-3.47,0-6.71,1.34-9.14,3.77c-2.49,2.49-3.85,5.83-3.84,9.39v12.66
	c0,2.42,1.96,4.38,4.38,4.38c2.42,0,4.38-1.96,4.38-4.38v-11.85c4.33,6.91,10.14,12.82,17.05,17.3c9.07,5.89,19.61,9,30.47,9
	c0,0,0,0,0.01,0c0.14,0,0.29-0.01,0.43-0.02c0.02,0,0.04,0,0.06-0.01c0.12-0.01,0.24-0.03,0.35-0.05c0.48-0.09,0.93-0.27,1.34-0.5
	c0.07-0.04,0.14-0.08,0.21-0.13c0.15-0.1,0.3-0.21,0.43-0.32c0.09-0.07,0.17-0.15,0.25-0.23c0.01-0.01,0.03-0.03,0.04-0.04
	c0.08-0.08,0.16-0.16,0.23-0.25c0.02-0.02,0.04-0.05,0.06-0.07c0.06-0.08,0.13-0.16,0.18-0.25c0.03-0.04,0.05-0.08,0.08-0.11
	c0.04-0.07,0.09-0.14,0.13-0.21c0.24-0.41,0.41-0.86,0.5-1.35c0.02-0.11,0.04-0.23,0.05-0.34c0-0.02,0.01-0.05,0.01-0.07
	C203.54,172.85,203.55,172.71,203.55,172.57L203.55,172.57L203.55,172.57L203.55,172.57z"/>
</svg>
