<?xml version="1.0" encoding="utf-8"?>
<!-- Generator: Adobe Illustrator 25.4.1, SVG Export Plug-In . SVG Version: 6.00 Build 0)  -->
<svg version="1.1" id="Capa_1" xmlns="http://www.w3.org/2000/svg" xmlns:xlink="http://www.w3.org/1999/xlink" x="0px" y="0px"
	 viewBox="0 0 308.27 315.25" style="enable-background:new 0 0 308.27 315.25;" xml:space="preserve">
<style type="text/css">
	.st0{fill:#FFFFFF;}
	.st1{fill:#9679FF;}
	.st2{clip-path:url(#SVGID_00000034774237964287932090000015824158929226875062_);fill:#1A1A1A;}
	.st3{clip-path:url(#SVGID_00000034774237964287932090000015824158929226875062_);fill:#333333;}
	.st4{clip-path:url(#SVGID_00000034774237964287932090000015824158929226875062_);fill:#543DFF;}
	.st5{clip-path:url(#SVGID_00000034774237964287932090000015824158929226875062_);fill:#1D1D1B;}
	
		.st6{clip-path:url(#SVGID_00000034774237964287932090000015824158929226875062_);fill:none;stroke:#000000;stroke-width:7.5287;stroke-miterlimit:10;}
	.st7{clip-path:url(#SVGID_00000034774237964287932090000015824158929226875062_);fill:#9678FF;}
	
		.st8{clip-path:url(#SVGID_00000034774237964287932090000015824158929226875062_);fill:none;stroke:#000000;stroke-width:1.2544;stroke-miterlimit:10;}
	.st9{clip-path:url(#SVGID_00000034774237964287932090000015824158929226875062_);}
	
		.st10{clip-path:url(#SVGID_00000034774237964287932090000015824158929226875062_);fill:none;stroke:#000000;stroke-width:9.4126;stroke-miterlimit:10;}
	.st11{clip-path:url(#SVGID_00000034774237964287932090000015824158929226875062_);fill:#8AE5EE;}
	.st12{fill:#1A1A1A;}
	.st13{fill:#1D1D1B;}
	.st14{fill:none;stroke:#000000;stroke-width:8.4472;stroke-miterlimit:10;}
	.st15{fill:#9678FF;}
	.st16{fill:none;stroke:#000000;stroke-width:1.4079;stroke-miterlimit:10;}
	.st17{fill:none;stroke:#000000;stroke-width:10.5567;stroke-miterlimit:10;}
	.st18{fill:#8AE5EE;}
	.st19{fill:none;}
	.st20{clip-path:url(#SVGID_00000098915123474071906160000011582088217420659867_);}
	.st21{fill:#A8F2F2;}
	.st22{fill:#1C1C1B;stroke:#012336;stroke-width:8.7402;stroke-miterlimit:10;}
	.st23{stroke:#FFFFFF;stroke-width:4;stroke-miterlimit:10;}
	.st24{fill:none;stroke:#000000;stroke-width:10;stroke-miterlimit:10;}
</style>
<ellipse transform="matrix(0.1602 -0.9871 0.9871 0.1602 53.6708 219.4542)" class="st1" cx="155.8" cy="78.19" rx="61.48" ry="61.48"/>
<g>
	<g>
		<g>
			<path d="M161.58,34.26l3.26,9.16c0.14,0.39,0.42,0.7,0.76,0.86l8.14,3.67c1.15,0.52,1.15,2.35,0,2.87l-8.14,3.67
				c-0.35,0.16-0.62,0.47-0.76,0.86l-3.26,9.16c-0.46,1.29-2.09,1.29-2.55,0l-3.26-9.16c-0.14-0.39-0.42-0.7-0.76-0.86l-8.14-3.67
				c-1.15-0.52-1.15-2.35,0-2.87l8.14-3.67c0.35-0.16,0.62-0.47,0.76-0.86l3.26-9.16C159.49,32.97,161.12,32.97,161.58,34.26z"/>
		</g>
		<g>
			<circle cx="110.75" cy="63.15" r="4.14"/>
		</g>
		<g>
			<ellipse cx="229.02" cy="63.71" rx="9.59" ry="9.59"/>
		</g>
	</g>
	<g>
		<g>
			<path d="M285.7,169.91l-19.23,12.13c-1.98,1.25-2.92,3.63-2.32,5.89c1.64,6.17,1.21,12.46-0.94,18.1
				c-1.82-4.49-5.05-8.23-9.32-10.72l-54.63-31.9c8.67-1.47,16.72-5.93,22.63-12.88c1.91-2.25,1.64-5.62-0.61-7.54
				c-2.25-1.91-5.62-1.64-7.54,0.61c-6.44,7.57-16.41,11.04-26.14,9.14l-8.13-12.77c-1.59-2.49-4.89-3.22-7.38-1.64
				c-2.49,1.59-3.22,4.89-1.64,7.38L182,163.84c4.01,6.29,2.15,14.68-4.15,18.68l-2.51,1.6c-3.05,1.94-6.67,2.58-10.2,1.79
				c-3.53-0.78-6.54-2.89-8.48-5.94l-20.59-32.35c-3.56-5.6-3.55-14.1,2.62-18.21c15.39-6.98,31.19-13.14,47.6-18.1
				c0.09-0.03,0.18-0.06,0.27-0.09c12.82-4.51,27.62-0.71,35.98,9.25c1.73,2.06,4.72,2.51,6.98,1.06l61.91-39.73
				c2.49-1.59,3.21-4.9,1.61-7.39c-1.6-2.48-4.9-3.21-7.39-1.61l-58.2,37.35c-11.43-10.66-28.96-14.4-44.31-9.06l-24.8,7.27
				c-0.51-0.13-0.96-0.26-1.29-0.39c-0.34-0.13-0.7-0.23-1.05-0.29l-23.93-7.72c-15.21-5.76-32.86-2.48-44.57,7.9L29.26,69.11
				c-2.46-1.63-5.78-0.97-7.41,1.49s-0.97,5.78,1.49,7.41l61.9,41.17c2.22,1.48,5.19,1.09,6.96-0.9
				c8.63-9.73,23.52-13.13,36.22-8.28c0.09,0.03,0.18,0.07,0.27,0.09l15.03,4.85l-10.07,5.03c-0.17,0.08-0.33,0.17-0.48,0.27
				c-10.67,6.79-13.41,21.64-6.11,33.11l20.59,32.35c3.47,5.46,8.87,9.24,15.18,10.64c1.76,0.39,3.54,0.58,5.3,0.58
				c1,0,1.99-0.07,2.97-0.2c0.35,0.47,0.78,0.88,1.27,1.22l66.94,45.18c2.51,1.69,4.21,4.27,4.79,7.24c0.58,2.97-0.04,5.99-1.73,8.5
				c-1.69,2.51-4.27,4.21-7.24,4.79c-2.97,0.58-5.99-0.04-8.5-1.73l-67.9-45.83c-2.44-1.65-5.76-1.01-7.41,1.43
				c-1.66,2.44-1.03,5.76,1.41,7.42l9.34,6.38l44.77,30.22c2.36,1.59,3.95,4,4.5,6.8c0.54,2.79-0.04,5.63-1.63,7.98
				c-1.59,2.36-4,3.95-6.79,4.49c-2.79,0.54-5.63-0.04-7.98-1.63l-65.5-44.21c-2.45-1.65-5.77-1.01-7.42,1.43
				c-1.65,2.44-1.02,5.76,1.42,7.42l49.86,33.84c4.07,3.11,4.9,8.95,1.82,13.07c-3.1,4.15-8.99,5-13.13,1.91L60.83,217.6
				c-0.07-0.05-0.13-0.09-0.2-0.14c-10.73-7.24-15.48-20.45-11.83-32.86c0.65-2.22-0.19-4.61-2.1-5.92l-17.37-11.94
				c-2.43-1.67-5.76-1.06-7.43,1.38c-1.67,2.43-1.06,5.76,1.38,7.43l14.34,9.86c-2.63,13.66,1.98,27.57,12.08,36.97
				c0.19,0.38,0.38,0.75,0.59,1.12c2.94,5.12,7.69,8.8,13.39,10.35c0.15,0.04,0.29,0.08,0.44,0.11
				c-8.39,6.98-10.49,19.31-4.48,28.76c3.16,4.96,8.06,8.4,13.81,9.68c5.16,1.15,10.44,0.43,15.06-2.02
				c0.13,3.67,1.21,7.35,3.32,10.67c6.32,9.93,19.53,12.86,29.46,6.54l1.39-0.89c0.26,3.6,1.49,7.08,3.63,10.11
				c3.91,5.54,10.12,8.5,16.44,8.5c4,0,8.04-1.19,11.54-3.66l0.95-0.67l0.34,0.25c3.6,2.68,7.81,3.98,11.98,3.98
				c6.13,0,12.18-2.79,16.12-8.06c2.26-3.03,3.54-6.5,3.88-10.02l1.38,0.93c4.72,3.19,10.41,4.35,16,3.26
				c5.6-1.09,10.43-4.29,13.62-9.01c2.16-3.19,3.38-6.82,3.62-10.57c9.89,5.57,22.6,2.68,29.06-6.88
				c6.26-9.28,4.49-21.66-3.71-28.87c0.15-0.03,0.29-0.07,0.44-0.1c5.51-1.34,10.19-4.66,13.28-9.38
				c11.02-9.09,16.39-23.28,14.08-37.42l16.08-10.14c2.5-1.57,3.25-4.88,1.67-7.37C291.5,169.09,288.2,168.34,285.7,169.91
				L285.7,169.91z M84.31,260.47c-2.56,1.63-5.59,2.16-8.55,1.5c-2.96-0.66-5.48-2.43-7.11-4.98c-3.36-5.28-1.8-12.3,3.48-15.66
				l1.45-0.92l19.48,14.48L84.31,260.47z M100.85,275.31c-2.77-4.36-1.97-9.99,1.64-13.42l18.12,13.47l-5.06,3.22
				C110.59,281.73,104,280.26,100.85,275.31L100.85,275.31z M135.04,290.66c-1.25-1.77-1.84-3.88-1.69-6.01l12.6,9.4
				C142.06,295.48,137.54,294.2,135.04,290.66L135.04,290.66z M252.5,220.35c-1.59,2.6-4.09,4.44-7.06,5.16
				c-2.96,0.72-6.03,0.24-8.6-1.32l-53.01-32.8c6.47-4.23,10.26-11.06,10.88-18.24l53.8,31.41c2.67,1.56,4.56,4.07,5.31,7.06
				C254.58,214.61,254.11,217.71,252.5,220.35L252.5,220.35z"/>
		</g>
		<g>
			<path d="M100.69,234.48c-1.07,0-2.14-0.32-3.08-0.98c-10.06-7.1-17.74-13.7-24.17-20.78c-1.98-2.19-1.82-5.57,0.37-7.55
				c2.19-1.98,5.57-1.82,7.55,0.37c5.89,6.48,13.01,12.59,22.41,19.23c2.41,1.7,2.99,5.04,1.29,7.45
				C104.02,233.69,102.37,234.48,100.69,234.48z"/>
		</g>
		<g>
			<path d="M66.54,198.88c-2.01,0-3.94-1.14-4.85-3.09c-0.89-1.91-1.49-3.65-1.83-5.34c-0.59-2.89,1.28-5.72,4.17-6.31
				c2.89-0.59,5.72,1.28,6.31,4.17c0.17,0.85,0.51,1.81,1.04,2.95c1.25,2.68,0.09,5.86-2.58,7.11
				C68.07,198.72,67.3,198.88,66.54,198.88z"/>
		</g>
	</g>
</g>
</svg>
