<?xml version="1.0" encoding="utf-8"?>
<!-- Generator: Adobe Illustrator 25.4.1, SVG Export Plug-In . SVG Version: 6.00 Build 0)  -->
<svg version="1.1" id="Capa_1" xmlns="http://www.w3.org/2000/svg" xmlns:xlink="http://www.w3.org/1999/xlink" x="0px" y="0px"
	 viewBox="0 0 387.72 423.52" style="enable-background:new 0 0 387.72 423.52;" xml:space="preserve">
<style type="text/css">
	.st0{fill:#FFFFFF;}
	.st1{fill:#9679FF;}
	.st2{clip-path:url(#SVGID_00000093140001782672119050000004654453578912201382_);fill:#1A1A1A;}
	.st3{clip-path:url(#SVGID_00000093140001782672119050000004654453578912201382_);fill:#333333;}
	.st4{clip-path:url(#SVGID_00000093140001782672119050000004654453578912201382_);fill:#543DFF;}
	.st5{clip-path:url(#SVGID_00000093140001782672119050000004654453578912201382_);fill:#1D1D1B;}
	
		.st6{clip-path:url(#SVGID_00000093140001782672119050000004654453578912201382_);fill:none;stroke:#000000;stroke-width:7.5287;stroke-miterlimit:10;}
	.st7{clip-path:url(#SVGID_00000093140001782672119050000004654453578912201382_);fill:#9678FF;}
	
		.st8{clip-path:url(#SVGID_00000093140001782672119050000004654453578912201382_);fill:none;stroke:#000000;stroke-width:1.2544;stroke-miterlimit:10;}
	.st9{clip-path:url(#SVGID_00000093140001782672119050000004654453578912201382_);}
	
		.st10{clip-path:url(#SVGID_00000093140001782672119050000004654453578912201382_);fill:none;stroke:#000000;stroke-width:9.4126;stroke-miterlimit:10;}
	.st11{clip-path:url(#SVGID_00000093140001782672119050000004654453578912201382_);fill:#8AE5EE;}
	.st12{fill:#1A1A1A;}
	.st13{fill:#1D1D1B;}
	.st14{fill:none;stroke:#000000;stroke-width:8.4472;stroke-miterlimit:10;}
	.st15{fill:#9678FF;}
	.st16{fill:none;stroke:#000000;stroke-width:1.4079;stroke-miterlimit:10;}
	.st17{fill:none;stroke:#000000;stroke-width:10.5567;stroke-miterlimit:10;}
	.st18{fill:#8AE5EE;}
	.st19{fill:none;}
	.st20{clip-path:url(#SVGID_00000002370309063989714020000015287098905465079713_);}
	.st21{fill:#A8F2F2;}
	.st22{fill:#1C1C1B;stroke:#012336;stroke-width:8.7402;stroke-miterlimit:10;}
	.st23{stroke:#FFFFFF;stroke-width:4;stroke-miterlimit:10;}
	.st24{fill:none;stroke:#000000;stroke-width:10;stroke-miterlimit:10;}
</style>
<g id="Human_mind_thinking_brain_head_human">
	<path class="st21" d="M368.28,35.92c-8.19,0.04-15.47,5.21-18.22,12.92H245.35c-10.54-14.19-30.59-17.15-44.78-6.61
		c-2.56,1.9-4.82,4.17-6.7,6.74c-10.47-14.24-30.51-17.3-44.75-6.83c-2.57,1.89-4.84,4.15-6.74,6.7H37.66
		c-3.57-10.09-14.64-15.38-24.73-11.81C2.83,40.6-2.45,51.67,1.11,61.76s14.64,15.38,24.73,11.81c5.52-1.95,9.86-6.29,11.81-11.81
		h98.71c-0.41,2.13-0.63,4.29-0.65,6.46c-0.01,2.06,0.2,4.12,0.65,6.14c-6.6,4.73-11.18,11.76-12.86,19.7H38.82
		c-3.57,0-6.46,2.89-6.46,6.46v65.76c-10.09,3.57-15.38,14.64-11.81,24.73s14.64,15.38,24.73,11.81
		c10.09-3.57,15.38-14.64,11.81-24.73c-1.95-5.52-6.29-9.86-11.81-11.81v-59.3h78.23c1.66,7.93,6.22,14.96,12.79,19.7
		c-1.06,5.41-0.66,11.01,1.16,16.21l-22.8,9.5c-17.74,0.86-31.42,15.93-30.56,33.67c0.73,15.11,11.89,27.66,26.81,30.16
		c4.32,29.09,23.53,53.81,50.65,65.18v14.15l-86.89,18.28c-20.85,4.51-35.77,22.92-35.85,44.25v58.98c0,3.57,2.89,6.46,6.46,6.46
		h297.16c3.57,0,6.46-2.89,6.46-6.46v-58.98c-0.09-21.34-15-39.74-35.85-44.25l-86.89-18.28V281.4
		c27.12-11.38,46.32-36.09,50.65-65.18c17.52-2.86,29.4-19.38,26.54-36.9c-2.45-15.01-15.09-26.25-30.29-26.93l-22.8-9.5
		c1.11-3.25,1.7-6.65,1.74-10.08c0.01-2.06-0.2-4.12-0.65-6.14c6.6-4.73,11.18-11.76,12.86-19.7h78.23v59.3
		c-10.09,3.57-15.38,14.64-11.81,24.73c3.57,10.09,14.64,15.38,24.73,11.81s15.38-14.64,11.81-24.73
		c-1.95-5.52-6.29-9.86-11.81-11.81v-65.76c0-3.57-2.89-6.46-6.46-6.46h-84.69c-1.66-7.93-6.22-14.96-12.79-19.7
		c0.39-2.02,0.58-4.08,0.58-6.14c-0.02-2.17-0.23-4.33-0.65-6.46h98.71c3.57,10.09,14.64,15.38,24.73,11.81
		c10.09-3.57,15.38-14.64,11.81-24.73C383.86,41.08,376.52,35.9,368.28,35.92L368.28,35.92z M19.44,61.76
		c-3.57,0-6.46-2.89-6.46-6.46s2.89-6.46,6.46-6.46s6.46,2.89,6.46,6.46S23.01,61.76,19.44,61.76z M38.82,190.96
		c-3.57,0-6.46-2.89-6.46-6.46s2.89-6.46,6.46-6.46c3.57,0,6.46,2.89,6.46,6.46S42.39,190.96,38.82,190.96z M109.88,202.72
		c-10.09-3.57-15.38-14.64-11.81-24.73c0.95-2.7,2.49-5.15,4.51-7.18c2.08-2.02,4.57-3.56,7.3-4.52V202.72z M277.84,166.28
		c2.7,0.97,5.16,2.48,7.24,4.46c3.63,3.66,5.68,8.6,5.68,13.76c-0.04,8.17-5.21,15.44-12.92,18.15V166.28z M348.9,178.04
		c3.57,0,6.46,2.89,6.46,6.46s-2.89,6.46-6.46,6.46s-6.46-2.89-6.46-6.46S345.33,178.04,348.9,178.04z M135.72,100.52
		c0.02-7.45,4.32-14.24,11.05-17.44c5.75-2.81,12.52-2.54,18.02,0.71l6.46-11.24c-6.84-3.85-14.84-5.14-22.55-3.62
		c0-0.26-0.06-0.45-0.06-0.71c0-10.7,8.67-19.38,19.38-19.38c8.89,0,16.64,6.05,18.8,14.67c0.4,1.54,0.6,3.12,0.58,4.72v64.6
		c0,10.7-8.68,19.38-19.38,19.38s-19.38-8.68-19.38-19.38c0-0.26,0.06-0.45,0.06-0.65c2.11,0.41,4.25,0.63,6.4,0.65
		c5.67-0.01,11.24-1.5,16.15-4.33l-6.46-11.24c-5.54,3.3-12.39,3.54-18.15,0.65C139.97,114.68,135.73,107.93,135.72,100.52z
		 M167.25,313.64l14.54,29.13l-29.13-7.3L167.25,313.64z M187.4,410.6h-83.98v-32.3H90.5v32.3H51.74v-52.52
		c0.05-15.25,10.73-28.41,25.65-31.59l76.49-16.15l-17.05,25.65c-1.96,2.98-1.14,6.99,1.84,8.95c0.6,0.4,1.27,0.69,1.97,0.87
		l46.77,11.69L187.4,410.6z M174.48,299.23v-13.7c12.73,3.1,26.03,3.1,38.76,0v13.7l-19.38,38.76L174.48,299.23z M310.4,326.49
		c14.89,3.21,25.54,16.36,25.58,31.59v52.52h-38.76v-32.3H284.3v32.3h-83.98v-53.1l46.77-11.69c3.46-0.87,5.56-4.39,4.68-7.85
		c-0.18-0.7-0.47-1.37-0.87-1.97l-17.05-25.65L310.4,326.49z M235.08,335.47l-29.13,7.3l14.54-29.13L235.08,335.47z M264.92,162.99
		v40.89c0,39.25-31.81,71.06-71.06,71.06s-71.06-31.81-71.06-71.06v-40.89l21.19-8.85c6.04,6.98,14.81,10.98,24.03,10.98
		c10.2-0.04,19.78-4.9,25.84-13.11c6.06,8.21,15.64,13.07,25.84,13.11c9.22,0,17.99-4.01,24.03-10.98L264.92,162.99z M252,100.52
		c-0.02,7.45-4.32,14.24-11.05,17.44c-5.75,2.81-12.52,2.54-18.02-0.71l-6.46,11.24c4.91,2.82,10.48,4.32,16.15,4.33
		c2.15-0.02,4.29-0.23,6.4-0.65c0,0.19,0.06,0.39,0.06,0.65c0,10.7-8.68,19.38-19.38,19.38c-10.7,0-19.38-8.68-19.38-19.38v-64.6
		c-0.02-1.64,0.2-3.27,0.65-4.85c2.74-10.35,13.35-16.51,23.7-13.77c8.46,2.24,14.37,9.87,14.42,18.62c0,0.26-0.06,0.45-0.06,0.71
		c-7.71-1.52-15.7-0.24-22.55,3.62l6.46,11.24c5.54-3.3,12.39-3.54,18.15-0.65C247.75,86.36,252,93.11,252,100.52z M368.28,61.76
		c-3.57,0-6.46-2.89-6.46-6.46s2.89-6.46,6.46-6.46c3.57,0,6.46,2.89,6.46,6.46S371.85,61.76,368.28,61.76z"/>
	<path class="st21" d="M0.06,229.72h12.92v12.92H0.06V229.72z"/>
	<path class="st21" d="M25.9,229.72h51.68v12.92H25.9V229.72z"/>
	<path class="st21" d="M0.06,255.56h12.92v12.92H0.06V255.56z"/>
	<path class="st21" d="M25.9,255.56h51.68v12.92H25.9V255.56z"/>
	<path class="st21" d="M0.06,281.4h12.92v12.92H0.06V281.4z"/>
	<path class="st21" d="M25.9,281.4h51.68v12.92H25.9V281.4z"/>
	<path class="st21" d="M310.14,229.72h12.92v12.92h-12.92V229.72z"/>
	<path class="st21" d="M335.98,229.72h51.68v12.92h-51.68V229.72z"/>
	<path class="st21" d="M310.14,255.56h12.92v12.92h-12.92V255.56z"/>
	<path class="st21" d="M335.98,255.56h51.68v12.92h-51.68V255.56z"/>
	<path class="st21" d="M310.14,281.4h12.92v12.92h-12.92V281.4z"/>
	<path class="st21" d="M335.98,281.4h51.68v12.92h-51.68V281.4z"/>
</g>
</svg>
