<?xml version="1.0" encoding="utf-8"?>
<!-- Generator: Adobe Illustrator 25.4.1, SVG Export Plug-In . SVG Version: 6.00 Build 0)  -->
<svg version="1.1" id="Capa_1" xmlns="http://www.w3.org/2000/svg" xmlns:xlink="http://www.w3.org/1999/xlink" x="0px" y="0px"
	 viewBox="0 0 484.84 452.92" style="enable-background:new 0 0 484.84 452.92;" xml:space="preserve">
<style type="text/css">
	.st0{fill:#FFFFFF;}
	.st1{fill:#9679FF;}
	.st2{clip-path:url(#SVGID_00000121973053570141601890000005818277348462792620_);fill:#1A1A1A;}
	.st3{clip-path:url(#SVGID_00000121973053570141601890000005818277348462792620_);fill:#333333;}
	.st4{clip-path:url(#SVGID_00000121973053570141601890000005818277348462792620_);fill:#543DFF;}
	.st5{clip-path:url(#SVGID_00000121973053570141601890000005818277348462792620_);fill:#1D1D1B;}
	
		.st6{clip-path:url(#SVGID_00000121973053570141601890000005818277348462792620_);fill:none;stroke:#000000;stroke-width:7.5287;stroke-miterlimit:10;}
	.st7{clip-path:url(#SVGID_00000121973053570141601890000005818277348462792620_);fill:#9678FF;}
	
		.st8{clip-path:url(#SVGID_00000121973053570141601890000005818277348462792620_);fill:none;stroke:#000000;stroke-width:1.2544;stroke-miterlimit:10;}
	.st9{clip-path:url(#SVGID_00000121973053570141601890000005818277348462792620_);}
	
		.st10{clip-path:url(#SVGID_00000121973053570141601890000005818277348462792620_);fill:none;stroke:#000000;stroke-width:9.4126;stroke-miterlimit:10;}
	.st11{clip-path:url(#SVGID_00000121973053570141601890000005818277348462792620_);fill:#8AE5EE;}
	.st12{fill:#1A1A1A;}
	.st13{fill:#1D1D1B;}
	.st14{fill:none;stroke:#000000;stroke-width:8.4472;stroke-miterlimit:10;}
	.st15{fill:#9678FF;}
	.st16{fill:none;stroke:#000000;stroke-width:1.4079;stroke-miterlimit:10;}
	.st17{fill:none;stroke:#000000;stroke-width:10.5567;stroke-miterlimit:10;}
	.st18{fill:#8AE5EE;}
	.st19{fill:none;}
	.st20{clip-path:url(#SVGID_00000165221648459330879740000005047283238427698108_);}
	.st21{fill:#A8F2F2;}
	.st22{fill:#1C1C1B;stroke:#012336;stroke-width:8.7402;stroke-miterlimit:10;}
	.st23{stroke:#FFFFFF;stroke-width:4;stroke-miterlimit:10;}
	.st24{fill:none;stroke:#000000;stroke-width:10;stroke-miterlimit:10;}
</style>
<circle class="st0" cx="396.06" cy="261.38" r="64.85"/>
<path class="st1" d="M123.04,389.18c2.01-3.48,7.04-3.48,9.05,0l8.17,14.16l8.17,14.16c2.01,3.48-0.5,7.84-4.53,7.84h-16.35h-16.35
	c-4.02,0-6.54-4.36-4.53-7.84l8.17-14.16L123.04,389.18z"/>
<path class="st1" d="M274.55,79.78c3.13-5.43,10.97-5.43,14.1,0l12.73,22.05l12.73,22.05c3.13,5.43-0.78,12.21-7.05,12.21H281.6
	h-25.47c-6.27,0-10.19-6.79-7.05-12.21l12.73-22.05L274.55,79.78z"/>
<path d="M326.74,207.17H234.6c-3.58,0-6.48-2.9-6.48-6.48v0c0-3.58,2.9-6.48,6.48-6.48h92.13c3.58,0,6.48,2.9,6.48,6.48v0
	C333.21,204.27,330.31,207.17,326.74,207.17z"/>
<path d="M326.74,182.22H234.6c-3.58,0-6.48-2.9-6.48-6.48l0,0c0-3.58,2.9-6.48,6.48-6.48h92.13c3.58,0,6.48,2.9,6.48,6.48l0,0
	C333.21,179.32,330.31,182.22,326.74,182.22z"/>
<g>
	<g>
		<path d="M233.58,353.76c-4.31-21.57-24.54-25.25-24.61-25.27v0c-0.22-0.06,1.86,0.46-49.36-12.24v-1.74h37.7
			c7.77,0,14.09-6.32,14.09-14.09v-71.9c0.63-2.67,0.63-5.45,0-8.13v-26.24c0-2.64-2.14-4.79-4.79-4.79c-2.64,0-4.79,2.14-4.79,4.79
			v13.74c-2.53-1.51-5.41-2.59-8.52-3.13c-1.12-4.99-5.27-8.93-10.52-9.62c-5.48-0.72-9.63-3.91-12.34-9.49
			c-1.27-2.61-3.75-4.33-6.64-4.59c-2.89-0.26-5.63,0.97-7.35,3.31c-8.23,11.2-31.1,36.32-70.6,36.32c-3.01,0-5.04-0.14-5.75-0.17
			c-7.26-0.44-13.4,5.36-13.4,12.64v11c0,17.58,7.29,34.62,20.01,46.76c4.22,4.02,8.87,7.38,13.83,10.06v3.98H63.02
			c-2.49,0-4.52-2.03-4.52-4.52V192.85c0-34.87,28.43-63.61,62.78-63.61c0.11,0,0.22,0,0.33,0c12.31,0.07,26.51,3.56,36.19,8.9
			c6.14,3.39,9.93,0.69,15.99,0.69c14.79,0,26.64,15.21,28.06,28.89c0.01,0.2,0.03,1,0.03,4.08c0,4.62,5.22,4.98,4.79,4.78
			c2.64,0,4.79-2.15,4.78-4.79c0-0.85,0.01-4.18-0.07-4.96c-1.92-19.04-18.17-37.57-37.59-37.57c-7.59,0-8.77,1.92-11.36,0.5
			c-10.98-6.06-26.98-10.02-40.77-10.09c-39.74-0.26-72.74,32.85-72.74,73.18v107.56c0,7.77,6.32,14.09,14.09,14.09h37.53v1.74
			l-49.16,12.18c-0.07,0.02-0.13,0.03-0.19,0.05l-3.59,1.06c-0.11,0.03-0.21,0.07-0.32,0.11c-6.41,2.39-17.62,8.7-20.7,24.11
			c-14.57,73.19-13.96,70.06-13.99,70.31c-1.75,12.41,4.46,22.34,19.41,22.34h51.77c2.64,0,4.79-2.14,4.79-4.79
			c0-2.64-2.14-4.79-4.79-4.79H65.75v-45.15c0-2.64-2.14-4.79-4.79-4.79c-2.64,0-4.79,2.14-4.79,4.79v45.15H32
			c-6.36,0-10.05-2.05-10.11-8.73c-0.03-3.26-0.16-0.08,14.09-72.48c2.14-10.74,9.94-15.22,14.51-16.96l3.32-0.98l28.23-7
			c31.41,37,29.55,35.04,31.36,36.81c10.48,10.23,25.44,9.5,35.28-2.06l29.56-34.72l28.12,6.97c0.81,0.37,14.81,2.84,17.83,17.93
			c14.12,71.77,14.11,69.21,14.09,72.48c-0.05,6.54-3.59,8.73-10.11,8.73h-24.01v-45.15c0-2.64-2.14-4.79-4.79-4.79
			c-2.64,0-4.79,2.14-4.79,4.79v45.15H106.1c-2.64,0-4.79,2.14-4.79,4.79c0,2.64,2.14,4.79,4.79,4.79h122.07
			c11.83,0,19.58-6.51,19.69-18.23C247.9,422.71,247.57,425.33,233.58,353.76z M193.63,214.63c4,1.19,7.08,3.82,8.21,7.08v5.48
			c-1.13,3.25-4.21,5.89-8.21,7.08V214.63z M193.63,244.97v-0.88c2.99-0.55,5.77-1.61,8.21-3.07v59.4c0,2.49-2.03,4.52-4.52,4.52
			h-37.7v-3.7C179.91,290.62,193.63,269.38,193.63,244.97z M93.33,283.97c-10.83-10.34-17.04-24.86-17.04-39.83
			c0.28-10.42-0.69-11.69,0.97-13.25c0.59-0.56,1.38-0.88,2.27-0.83c34.32,2.07,63.85-13.02,83.34-38.29
			c5.26,9.23,12.96,12.1,18.68,12.85c1.43,0.19,2.51,1.41,2.51,2.84c0,13.24,0,24.36,0,37.51
			C184.05,292.6,127.03,316.13,93.33,283.97z M141.39,359.24c-6.67,7.83-16.01,7.81-22.66-0.04l-9.99-11.79h42.72L141.39,359.24z
			 M159.61,337.84h-58.98l-8.23-9.71l14.09-3.49c2.14-0.53,3.64-2.49,3.64-4.69l0-14.81c13.17,4.39,27.08,4.34,39.92,0.14
			c0.09,15.3-0.21,14.95,0.27,16.3c0.52,1.49,1.77,2.67,3.37,3.07l14.18,3.51L159.61,337.84z"/>
	</g>
</g>
<path class="st24" d="M124.35,387.81c2.1-3.63,7.34-3.63,9.44,0l8.78,15.2l8.78,15.2c2.1,3.63-0.52,8.18-4.72,8.18h-17.55h-17.55
	c-4.2,0-6.82-4.54-4.72-8.18l8.78-15.2L124.35,387.81z"/>
<path class="st24" d="M273.47,78.41c3.24-5.61,11.34-5.61,14.59,0l13.56,23.48l13.56,23.48c3.24,5.61-0.81,12.63-7.29,12.63h-27.11
	h-27.11c-6.48,0-10.53-7.02-7.29-12.63l13.56-23.48L273.47,78.41z"/>
<path d="M211.14,233.92H326c1.67-3.98,3.69-7.84,6.03-11.47H207.54C208.88,226.23,210.12,230.05,211.14,233.92z"/>
<path d="M436.45,50.39h-66.23v-30.1c0-3.33-2.7-6.02-6.02-6.02H195.62c-3.33,0-6.02,2.7-6.02,6.02v30.1h-66.23
	c-16.62,0.02-30.08,13.49-30.1,30.1v41.22c4.01,0.41,8.03,0.84,12.04,1.25V80.49c0-9.98,8.09-18.06,18.06-18.06h66.23v78.1
	c0.03,0.02,0.07,0.03,0.1,0.04c1.84-1.23,4.45-1.08,6.37,0.55c2.07,1.75,3.97,3.78,5.57,6V26.31h156.54V202
	c3.76-2.46,7.78-4.52,12.04-6.07V62.43h66.23c9.98,0,18.06,8.09,18.06,18.06v174.6h-3.93c0.03,0.91,0.03,1.84,0.01,2.78
	c1.93,0.17,4.99,11.08,3.93,11.42v15.9c0,9.98-8.09,18.06-18.06,18.06h-6.66c-4.66,5.73-11.58,9.59-19.05,12.04h25.71
	c16.62-0.02,30.08-13.49,30.1-30.1V80.49C466.54,63.87,453.07,50.41,436.45,50.39z"/>
<path d="M328.08,339.38h-18.06V315.3H368c-0.13-0.05-0.27-0.11-0.4-0.16c-0.54-0.12-1.09-0.25-1.63-0.39
	c-8.9-1.47-18.87-4.32-21.85-10.99c-0.2-0.17-0.41-0.33-0.61-0.5H180.34c-0.11,0.61-0.35,1.24-0.77,1.87
	c-2.6,3.94-5.88,7.34-9.61,10.17h79.85v24.08h-18.06c-3.23,0-6.36,0.38-9.38,1.07c0.11,0.23,0.2,0.47,0.27,0.73
	c0.11,0.43,0.21,0.86,0.32,1.28c1.05,0.66,1.91,1.61,2.34,2.71c0.84,2.16,1.71,4.33,2.58,6.51c1.27-0.17,2.57-0.25,3.88-0.25h96.33
	c14.3,0.02,26.62,10.07,29.5,24.08H236.05c0.93,3.96,1.57,7.97,1.77,12.04H364.2c3.33,0,6.02-2.7,6.02-6.02
	C370.2,358.26,351.34,339.41,328.08,339.38z M297.98,339.38h-36.12V315.3h36.12V339.38z"/>
<circle class="st24" cx="387.1" cy="255.07" r="66.16"/>
<path d="M395.27,208.58c-4.35-1.11-8.78,2.33-8.78,6.82c0,4.91-1.79,9.64-5.04,13.32l-9.44,10.68c-0.61-0.94-1.67-1.56-2.87-1.56
	h-18.42c-1.89,0-3.42,1.53-3.42,3.42v41.45c0,1.89,1.53,3.42,3.42,3.42h18.42c1.38,0,2.57-0.82,3.11-2
	c3.73,2.28,8.05,3.51,12.45,3.51h32.55c4.97,0,9.08-4.32,8.84-9.28c-0.1-2.2,0.01-31.7,0.01-32.36c0-4.88-3.97-8.85-8.84-8.85
	l-16.93-0.05l0.7-1.66c3.2-7.59,2.68-16.38-1.41-23.53C398.68,210.24,397.13,209.06,395.27,208.58
	C393.4,208.1,397.13,209.06,395.27,208.58C390.92,207.47,397.13,209.06,395.27,208.58L395.27,208.58z M365.72,279.28h-11.57v-34.6
	h11.57V279.28z M417.26,244c1.11,0,2.01,0.9,2.01,2.01c0,0.65-0.01,2.42-0.02,4.82c-0.05,13.24-0.08,25.78,0.01,27.86
	c0.04,0.75-0.33,1.25-0.55,1.49c-0.38,0.4-0.9,0.62-1.45,0.62h-32.55c-3.88,0-7.68-1.34-10.69-3.79l-1.44-1.17v-26.73l14.01-15.86
	c4.35-4.93,6.75-11.27,6.75-17.85c0-0.19,0.26-0.24,0.35-0.09c3.03,5.31,3.42,11.84,1.05,17.47l-2.7,6.4
	c-0.45,1.06-0.33,2.26,0.3,3.22c0.63,0.96,1.7,1.53,2.85,1.54L417.26,244z"/>
</svg>
