<?xml version="1.0" encoding="utf-8"?>
<!-- Generator: Adobe Illustrator 25.4.1, SVG Export Plug-In . SVG Version: 6.00 Build 0)  -->
<svg version="1.1" id="Capa_1" xmlns="http://www.w3.org/2000/svg" xmlns:xlink="http://www.w3.org/1999/xlink" x="0px" y="0px"
	 viewBox="0 0 497.91 459.88" style="enable-background:new 0 0 497.91 459.88;" xml:space="preserve">
<style type="text/css">
	.st0{fill:#FFFFFF;}
	.st1{fill:#9679FF;}
	.st2{clip-path:url(#SVGID_00000120546666644991307720000012433964115955186337_);fill:#1A1A1A;}
	.st3{clip-path:url(#SVGID_00000120546666644991307720000012433964115955186337_);fill:#333333;}
	.st4{clip-path:url(#SVGID_00000120546666644991307720000012433964115955186337_);fill:#543DFF;}
	.st5{clip-path:url(#SVGID_00000120546666644991307720000012433964115955186337_);fill:#1D1D1B;}
	
		.st6{clip-path:url(#SVGID_00000120546666644991307720000012433964115955186337_);fill:none;stroke:#000000;stroke-width:7.5287;stroke-miterlimit:10;}
	.st7{clip-path:url(#SVGID_00000120546666644991307720000012433964115955186337_);fill:#9678FF;}
	
		.st8{clip-path:url(#SVGID_00000120546666644991307720000012433964115955186337_);fill:none;stroke:#000000;stroke-width:1.2544;stroke-miterlimit:10;}
	.st9{clip-path:url(#SVGID_00000120546666644991307720000012433964115955186337_);}
	
		.st10{clip-path:url(#SVGID_00000120546666644991307720000012433964115955186337_);fill:none;stroke:#000000;stroke-width:9.4126;stroke-miterlimit:10;}
	.st11{clip-path:url(#SVGID_00000120546666644991307720000012433964115955186337_);fill:#8AE5EE;}
	.st12{fill:#1A1A1A;}
	.st13{fill:#1D1D1B;}
	.st14{fill:none;stroke:#000000;stroke-width:8.4472;stroke-miterlimit:10;}
	.st15{fill:#9678FF;}
	.st16{fill:none;stroke:#000000;stroke-width:1.4079;stroke-miterlimit:10;}
	.st17{fill:none;stroke:#000000;stroke-width:10.5567;stroke-miterlimit:10;}
	.st18{fill:#8AE5EE;}
	.st19{fill:none;}
	.st20{clip-path:url(#SVGID_00000051384375333455532520000005029333787601482899_);}
	.st21{fill:#A8F2F2;}
	.st22{fill:#1C1C1B;stroke:#012336;stroke-width:8.7402;stroke-miterlimit:10;}
	.st23{stroke:#FFFFFF;stroke-width:4;stroke-miterlimit:10;}
	.st24{fill:none;stroke:#000000;stroke-width:10;stroke-miterlimit:10;}
</style>
<ellipse transform="matrix(0.1602 -0.9871 0.9871 0.1602 50.0331 600.8524)" class="st1" cx="378.13" cy="271.02" rx="48.17" ry="48.17"/>
<g>
	<path class="st21" d="M451.39,156.45H268.33c0.78-1.45-8.8-16.63-9.29-15.42c-2.24-2.71-4.88-5.08-7.82-7.03
		C249.55,59.78,197.41,0,133.55,0C69.59,0,17.39,59.97,15.87,134.36c-1.86,1.24-3.65,2.62-5.35,4.14
		c-10.33,9.21-10.88,21.65-10.39,22.46C0.05,161.94,0,162.92,0,163.91c0,19.8,16.11,35.9,35.92,35.9h7.95v2.55
		c0,22.51,8.22,43.74,23.25,60.28c-32.23,20.07-52.09,55.6-52.09,93.69v96.05c0,4.14,3.36,7.5,7.5,7.5h208.08
		c4.14,0,7.5-3.36,7.5-7.5V396h50.01v18.15h-15.8c-12.61,0-22.86,10.26-22.86,22.86s10.26,22.86,22.86,22.86h134.15
		c12.61,0,22.86-10.26,22.86-22.86s-10.26-22.86-22.86-22.86h-15.8V396h60.72c25.65,0,46.52-20.87,46.52-46.52V202.97
		C497.91,177.32,477.04,156.45,451.39,156.45z M250.88,156.45H227.4c-1.34,0-2.67,0.07-3.98,0.18v-13.65h7.95
		C240.27,142.98,247.86,148.58,250.88,156.45z M43.87,184.81h-7.95c-11.54,0-20.92-9.38-20.92-20.9c0-5.6,2.17-10.85,6.12-14.8
		c3.95-3.95,9.2-6.12,14.8-6.12h7.95V184.81z M51.37,110.44c-4.14,0-7.5,3.36-7.5,7.5v10.04h-7.95c-1.27,0-2.53,0.08-3.77,0.22
		C36.21,65.52,80.13,16,133.55,16c53.41,0,97.33,49.5,101.4,112.17c-1.18-0.12-2.38-0.19-3.59-0.19h-7.95v-10.04
		c0-4.14-3.36-7.5-7.5-7.5h-3.87c-31.9,0-60.56-20.17-71.34-50.18c-1.07-2.98-3.89-4.97-7.06-4.97c-3.17,0-5.99,1.99-7.06,4.97
		c-5.3,14.77-14.89,27.35-27.74,36.38c-12.84,9.03-27.92,13.8-43.61,13.8H51.37z M58.87,202.37v-76.99
		c17.49-0.69,34.23-6.34,48.61-16.46c10.78-7.58,19.65-17.25,26.18-28.45c15.47,26.42,43.63,43.66,74.76,44.91v35.15
		c-16.21,7.28-27.54,23.56-27.54,42.46v57.05c-13.16,10.92-29.6,16.97-46.67,17.11c-20.12,0.17-39-7.56-53.25-21.7
		C66.71,241.29,58.87,222.44,58.87,202.37z M112.17,426.31c0,10.24-8.33,18.57-18.57,18.57l-18.54,0
		c0.84-20.62,17.89-37.14,38.71-37.14h45c3.05,0,5.54,2.48,5.54,5.54c0,3.05-2.48,5.54-5.54,5.54h-39.11
		C115.53,418.81,112.17,422.17,112.17,426.31z M121.55,444.88c2.22-3.32,3.86-7.06,4.78-11.07h29.08c7.57,0,14.1,4.56,16.99,11.07
		H121.55z M223.11,444.88h-34.98c-1.82-7.94-6.45-14.81-12.8-19.5c2.49-3.4,3.99-7.58,3.99-12.1c0-11.32-9.21-20.54-20.54-20.54h-45
		c-15.21,0-28.96,6.36-38.74,16.55V357.9c0-4.14-3.36-7.5-7.5-7.5c-4.14,0-7.5,3.36-7.5,7.5v86.98h-30v-88.55
		c0-34.06,18.38-65.76,47.96-82.72l0.7-0.28c15.67,12.19,34.79,18.8,54.95,18.8c0.23,0,0.46,0,0.69,0
		c16.57-0.13,32.65-4.9,46.55-13.63v70.98c0,24.2,18.58,44.14,42.23,46.31V444.88z M406.46,429.16c4.34,0,7.86,3.53,7.86,7.86
		s-3.53,7.86-7.86,7.86H272.32c-4.34,0-7.86-3.53-7.86-7.86s3.53-7.86,7.86-7.86H406.46z M482.91,349.48
		c0,17.38-14.14,31.52-31.52,31.52h-60.72v-21.39c0-4.14-3.36-7.5-7.5-7.5c-4.14,0-7.5,3.36-7.5,7.5v54.54h-72.55V293.29
		c0-10.02,8.16-18.18,18.18-18.18h36.19c10.02,0,18.18,8.16,18.18,18.18v36.44c0,4.14,3.36,7.5,7.5,7.5c4.14,0,7.5-3.36,7.5-7.5
		v-36.44c0-18.3-14.89-33.18-33.18-33.18H321.3c-18.29,0-33.18,14.89-33.18,33.18V381H227.4c-17.38,0-31.52-14.14-31.52-31.52
		V202.97c0-17.38,14.14-31.52,31.52-31.52h223.99c17.38,0,31.52,14.14,31.52,31.52V349.48z"/>
	<path class="st21" d="M461,320.25h-48.53c-4.14,0-7.5,3.36-7.5,7.5c0,4.14,3.36,7.5,7.5,7.5H461c4.14,0,7.5-3.36,7.5-7.5
		C468.5,323.6,465.14,320.25,461,320.25z"/>
	<path class="st21" d="M461,345.28h-48.53c-4.14,0-7.5,3.36-7.5,7.5c0,4.14,3.36,7.5,7.5,7.5H461c4.14,0,7.5-3.36,7.5-7.5
		C468.5,348.63,465.14,345.28,461,345.28z"/>
	<path class="st21" d="M461,295.22h-48.53c-4.14,0-7.5,3.36-7.5,7.5c0,4.14,3.36,7.5,7.5,7.5H461c4.14,0,7.5-3.36,7.5-7.5
		C468.5,298.57,465.14,295.22,461,295.22z"/>
	<path class="st21" d="M266.31,320.25h-48.53c-4.14,0-7.5,3.36-7.5,7.5c0,4.14,3.36,7.5,7.5,7.5h48.53c4.14,0,7.5-3.36,7.5-7.5
		C273.81,323.6,270.45,320.25,266.31,320.25z"/>
	<path class="st21" d="M266.31,345.28h-48.53c-4.14,0-7.5,3.36-7.5,7.5c0,4.14,3.36,7.5,7.5,7.5h48.53c4.14,0,7.5-3.36,7.5-7.5
		C273.81,348.63,270.45,345.28,266.31,345.28z"/>
	<path class="st21" d="M266.31,295.22h-48.53c-4.14,0-7.5,3.36-7.5,7.5c0,4.14,3.36,7.5,7.5,7.5h48.53c4.14,0,7.5-3.36,7.5-7.5
		C273.81,298.57,270.45,295.22,266.31,295.22z"/>
</g>
</svg>
