<?xml version="1.0" encoding="utf-8"?>
<!-- Generator: Adobe Illustrator 25.4.1, SVG Export Plug-In . SVG Version: 6.00 Build 0)  -->
<svg version="1.1" id="Capa_1" xmlns="http://www.w3.org/2000/svg" xmlns:xlink="http://www.w3.org/1999/xlink" x="0px" y="0px"
	 viewBox="0 0 1080 1080" style="enable-background:new 0 0 1080 1080;" xml:space="preserve">
<style type="text/css">
	.st0{fill:#9679FF;}
	.st1{clip-path:url(#SVGID_00000080910274696522867590000012689859417082317953_);fill:#1A1A1A;}
	.st2{clip-path:url(#SVGID_00000080910274696522867590000012689859417082317953_);fill:#333333;}
	.st3{clip-path:url(#SVGID_00000080910274696522867590000012689859417082317953_);fill:#543DFF;}
	.st4{clip-path:url(#SVGID_00000080910274696522867590000012689859417082317953_);fill:#1D1D1B;}
	
		.st5{clip-path:url(#SVGID_00000080910274696522867590000012689859417082317953_);fill:none;stroke:#000000;stroke-width:7.5287;stroke-miterlimit:10;}
	.st6{clip-path:url(#SVGID_00000080910274696522867590000012689859417082317953_);fill:#9678FF;}
	
		.st7{clip-path:url(#SVGID_00000080910274696522867590000012689859417082317953_);fill:none;stroke:#000000;stroke-width:1.2544;stroke-miterlimit:10;}
	.st8{clip-path:url(#SVGID_00000080910274696522867590000012689859417082317953_);}
	
		.st9{clip-path:url(#SVGID_00000080910274696522867590000012689859417082317953_);fill:none;stroke:#000000;stroke-width:9.4126;stroke-miterlimit:10;}
	.st10{clip-path:url(#SVGID_00000080910274696522867590000012689859417082317953_);fill:#8AE5EE;}
	.st11{fill:#1A1A1A;}
	.st12{fill:#1D1D1B;}
	.st13{fill:none;stroke:#000000;stroke-width:8.4472;stroke-miterlimit:10;}
	.st14{fill:#9678FF;}
	.st15{fill:none;stroke:#000000;stroke-width:1.4079;stroke-miterlimit:10;}
	.st16{fill:none;stroke:#000000;stroke-width:10.5567;stroke-miterlimit:10;}
	.st17{fill:#8AE5EE;}
	.st18{fill:none;}
	.st19{clip-path:url(#SVGID_00000157301887415747128240000002294485227826121646_);}
	.st20{fill:#FFFFFF;}
	.st21{fill:#A8F2F2;}
	.st22{fill:#1C1C1B;stroke:#012336;stroke-width:8.7402;stroke-miterlimit:10;}
	.st23{stroke:#FFFFFF;stroke-width:4;stroke-miterlimit:10;}
</style>
<path class="st20" d="M402.6,193.53c-4.42,4.57-7.73,10.1-12.58,12.47c-6.22,3.04-12.98,0.12-15.95-6.22
	c-6.87-14.65-13.72-29.42-18.66-44.77c-1.34-4.16,2.84-12.95,6.91-15.18c4.04-2.21,14.57-0.74,16.31,2.41
	C387.36,158.01,394.14,174.87,402.6,193.53z"/>
<path class="st20" d="M139.73,363.3c5.51,1.82,8.39,2.54,11.08,3.7c12.14,5.19,24.35,10.25,36.3,15.86
	c8.41,3.96,11.16,11.31,7.91,18.74c-3.28,7.51-10.6,10.9-18.97,7.58c-13.8-5.49-27.46-11.38-40.86-17.77
	c-6.67-3.18-10.04-9.92-6.91-16.61C130.56,369.93,136.23,366.66,139.73,363.3z"/>
<path class="st20" d="M734.74,148.79c-1.4,5.1-1.74,7.44-2.65,9.53c-5.53,12.71-10.97,25.47-16.87,38.01
	c-4.05,8.63-11.85,11.67-19.47,8.34c-7.38-3.23-10.29-11.4-6.61-20.07c5.54-13.07,11.29-26.05,17.26-38.92
	c3.21-6.92,9.63-10.22,16.35-7.49C727.77,140.23,731.39,145.68,734.74,148.79z"/>
<path class="st20" d="M962.73,384.01c-1.81,2.11-4.34,7.45-8.49,9.45c-13.36,6.45-27.23,11.89-41.07,17.28
	c-8.21,3.2-14.53-0.38-17.81-7.94c-3.16-7.28-1.03-14.37,6.21-17.75c14.05-6.55,28.34-12.74,42.97-17.82
	C953.95,363.96,963.09,371.73,962.73,384.01z"/>
<path class="st0" d="M267.87,859.42c20.88-0.45,41.23-4.06,57.87,11.89c13.4,12.84,18.14,28.44,12.64,46.16
	c-5.44,17.52-17.57,28.74-36,31.47c-9.1,1.35-18.48,0.72-27.73,1.15c-5.21,0.24-6.87-2.19-6.84-7.17
	C267.94,915.78,267.87,888.64,267.87,859.42z"/>
<ellipse transform="matrix(0.7071 -0.7071 0.7071 0.7071 -63.8618 591.4248)" class="st21" cx="681.98" cy="372.8" rx="181.6" ry="181.6"/>
<path class="st20" d="M544.31,301.35c12.98-15.39,28.9-25.38,48.75-28.4c32.52-4.95,63.39,11.49,78.05,40.96
	c2.7,5.42,7.36,9.86,11.13,14.74c8.25,10.69,17,21.04,24.53,32.21c3.23,4.79,5.5,7.64,11.95,7.74
	c44.31,0.68,78.21,27.53,89.51,70.81c1.66,6.37,4.74,8.95,10.86,10.61c46.79,12.7,76.1,54.86,70.44,100.73
	c-5.8,46.98-46.11,82.25-94.91,82.35c-77.67,0.15-155.35-0.11-233.02-0.17c-0.59,0-1.17,0.39-2.87,0.99c0,13.47,0,27.33,0,41.18
	c0,18.26-0.12,36.52,0.03,54.78c0.22,26.77,18.17,44.86,45.14,45.02c40.17,0.24,80.34-0.13,120.5,0.15
	c38.33,0.27,66.8,25.48,72.3,63.41c5.5,37.94-24.07,75.91-62.25,79.72c-6.59,0.66-13.25,0.79-19.88,0.79
	c-111.54,0.04-223.08,0.11-334.62-0.14c-8.35-0.02-12.73,1.62-15.73,10.46c-10.08,29.69-35.64,47.91-67.01,48.94
	c-13.93,0.46-27.88,0.34-41.82,0.12c-11.43-0.18-16.19-5.16-16.44-16.48c-0.12-5.58-0.02-11.17-0.02-18.39c-9.65,0-18.45,0-27.26,0
	c-6.31,0-12.62,0.15-18.92-0.06c-11.35-0.38-17.6-5.77-17.47-14.79c0.12-8.95,6.42-13.96,17.9-14.01
	c14.84-0.07,29.68-0.02,45.12-0.02c0-7.08,0-12.88,0-20.25c-12.47,0-24.62,0-36.77,0c-3.65,0-7.31,0.11-10.95-0.04
	c-9.09-0.37-14.98-5.67-15.29-13.62c-0.32-8.03,5.02-14.24,14.16-14.83c10.58-0.67,21.23-0.29,31.85-0.34c5.29-0.03,10.58,0,17.63,0
	c0-6.16-0.05-11.63,0.01-17.09c0.13-12.8,4.67-17.67,17.08-17.82c13.28-0.16,26.56-0.28,39.83,0.06
	c33.14,0.84,59.23,19.91,69.46,51.39c2.17,6.67,5.07,8.63,11.82,8.61c115.19-0.19,230.38-0.1,345.57-0.18
	c20.84-0.01,38.07-11.92,43.87-29.71c5.94-18.24-0.04-36.63-15.62-48.75c-9.21-7.16-19.86-8.57-31-8.56
	c-37.18,0.02-74.36,0.06-111.54-0.03c-48.98-0.11-78.6-29.84-78.64-78.81c-0.03-30.17-0.01-60.34-0.01-91.46c-3.53,0-6.38,0-9.23,0
	c-76.02,0-152.04,0.22-228.06-0.08c-43.78-0.17-81.49-30.36-91.31-72.1c-11.4-48.47,17.43-97.1,66-110.3
	c8.02-2.18,11.69-5.62,13.86-13.76c10.91-40.94,45.82-67.73,88.46-68.31c6.14-0.08,8.78-2.31,12.2-7.31
	c8.33-12.18,18.17-23.33,27.37-34.91c2.02-2.54,4.67-4.86,5.8-7.76c19.06-49.01,86.31-65.17,126.09-20.34
	C541.79,299.24,542.85,300.03,544.31,301.35z M673.06,603.46c2.83,0.29,4.45,0.61,6.07,0.61c40.16-0.01,80.32,0.26,120.47-0.19
	c28.93-0.32,56.66-24.68,60.71-52.28c4.85-33.09-13.23-63.52-43.37-73.01c-19.2-6.04-38.24-0.38-49.14,14.11
	c-3.29,4.37-3.72,7.56-0.26,12.18c9.31,12.45,10.75,26.84,8.57,41.74c-1.46,9.99-8.34,15.16-17.24,13.46
	c-8.26-1.57-12.36-8.52-11.1-18.06c0.51-3.87,0.95-8.03,0.09-11.75c-4.05-17.52-19.78-24.91-38.05-18.26
	c-9.26,3.37-17.23,0.82-20.3-6.49c-3.38-8.06-0.07-17.18,9.55-19.69c10.92-2.84,22.59-2.66,33.87-4.3
	c3.68-0.53,7.64-1.96,10.58-4.16c10.75-8.03,20.71-17.18,31.83-24.6c4.93-3.29,6.22-5.7,4.49-10.96
	c-4.65-14.09-13.29-25.16-25.23-33.64c-23.66-16.81-55.37-14.57-73.84,4.78c-3.73,3.91-4.93,6.91-1.24,11.85
	c3.51,4.69,6.17,10.25,8.15,15.8c2.99,8.42-0.67,16.39-7.82,19.01c-8.03,2.94-15.18-0.6-19.06-9.44
	c-10.4-23.67-31.23-26.98-48.29-7.68c-6.7,7.58-14.12,8.95-20.93,3.87c-7.08-5.28-7.83-13.57-1.48-21.91
	c12.89-16.93,30.06-24.27,51.27-22.46c3.79,0.32,8.94,1.34,11.25-0.59c10.01-8.41,19.21-17.79,30.43-28.46
	c-4.19-4.12-8.34-11.83-13.4-12.49c-16.04-2.1-18.81-3.5-20.13-19.15c-1.96-23.35-22.87-41.44-47.07-40.73
	c-23.72,0.69-43.32,20.58-43.42,44.31c-0.18,43.82-0.21,87.63-0.35,131.45c-0.01,3.63,0.07,7.38-0.76,10.86
	c-1.87,7.87-7.18,11.77-15.3,11.05c-7.72-0.68-11.85-5.41-12.71-12.91c-0.38-3.28-0.16-6.63-0.16-9.95
	c-0.07-43.82,0.16-87.64-0.33-131.45c-0.21-18.81-10.74-31.96-27.3-39.47c-16.41-7.44-32.38-5.15-46.64,6.31
	c-11.29,9.07-16.84,21-17.53,35.38c-0.41,8.49-4.88,14.89-13.44,13.93c-13.25-1.48-14.55,7.66-17.6,14.95
	c8.51,7.44,16.87,13.58,23.69,21.11c4.79,5.29,9.04,7.15,16.16,6.21c21.14-2.79,38.38,4.9,51.44,21.68
	c6.55,8.42,6.08,16.51-0.78,22.02c-6.9,5.54-14.6,4.14-21.62-3.95c-16.31-18.79-38.12-15.33-47.81,7.6
	c-3.88,9.19-10.44,12.7-18.74,10.03c-7.7-2.48-11.53-10.57-8.09-19.62c2.78-7.34,7-14.13,10.74-21.47
	c-0.26-0.47-0.59-1.45-1.21-2.19c-15.39-18.18-35.1-23.36-57.41-17.21c-23.14,6.37-38.21,21.94-44.75,45.06
	c-0.6,2.11,3,6.15,5.52,8.26c10.03,8.42,20.82,15.98,30.44,24.83c3.8,3.49,6.53,4.4,11.67,4.53c11.65,0.31,23.53,1.59,34.76,4.59
	c8.49,2.27,11.29,11.02,8.36,18.55c-2.78,7.16-10.76,10.32-19.14,7.58c-26.21-8.56-41.96,3.92-39.13,30.91
	c0.88,8.35-2.41,14.3-10.91,16.35c-8.19,1.97-15.31-2.5-17.18-10.97c-3.11-14.11-1.6-27.7,5.72-40.38
	c6.45-11.18,5.96-14.44-4.47-22.52c-8.87-6.87-18.71-11.19-30.36-10.05c-31.17,3.05-56.71,32.01-56.5,64.18
	c0.22,32.36,26.76,62.61,58.2,63.45c42.45,1.13,84.95,0.29,127.43,0.24c0.52,0,1.03-0.66,1.94-1.27c-1.05-3.31-2.19-6.72-3.22-10.17
	c-9.96-33.44,16.31-69.68,50.82-70.13c9.4-0.12,16.1,5.27,16.68,13.44c0.54,7.59-5.09,13.82-13.95,15.37
	c-1.3,0.23-2.65,0.17-3.97,0.34c-13.72,1.75-24.02,14.04-23.2,27.68c0.8,13.45,11.74,24.58,25.09,24.81
	c18.25,0.32,36.51-0.01,54.76,0.25c8.51,0.12,12-3.75,11.9-12.05c-0.19-14.6-0.08-29.21-0.02-43.82
	c0.05-12.58,4.64-18.63,14.08-18.78c9.68-0.15,14.73,6.34,14.84,19.29c0.12,13.94,0.42,27.89,0.09,41.82
	c-0.23,9.66,3.48,13.9,13.47,13.61c17.25-0.49,34.51-0.07,51.77-0.27c14.79-0.17,25.98-11.05,26.54-25.38
	c0.54-13.77-9.63-25.44-23.7-27.19c-12.06-1.5-18.16-7.23-17.24-16.21c0.96-9.44,9.25-14.69,21.06-12.52
	c19.33,3.55,34.47,13.05,43.09,31.55C681.24,570.3,680.38,586.28,673.06,603.46z M267.87,859.42c0,29.22,0.07,56.36-0.06,83.5
	c-0.02,4.98,1.63,7.41,6.84,7.17c9.25-0.43,18.63,0.2,27.73-1.15c18.43-2.73,30.55-13.95,36-31.47
	c5.51-17.71,0.76-33.31-12.64-46.16C309.1,855.36,288.75,858.97,267.87,859.42z"/>
</svg>
