<?xml version="1.0" encoding="utf-8"?>
<!-- Generator: Adobe Illustrator 25.4.1, SVG Export Plug-In . SVG Version: 6.00 Build 0)  -->
<svg version="1.1" id="Capa_1" xmlns="http://www.w3.org/2000/svg" xmlns:xlink="http://www.w3.org/1999/xlink" x="0px" y="0px"
	 viewBox="0 0 406.82 433.46" style="enable-background:new 0 0 406.82 433.46;" xml:space="preserve">
<style type="text/css">
	.st0{fill:#FFFFFF;}
	.st1{fill:#9679FF;}
	.st2{clip-path:url(#SVGID_00000070818957249846998300000015882143299412401336_);fill:#1A1A1A;}
	.st3{clip-path:url(#SVGID_00000070818957249846998300000015882143299412401336_);fill:#333333;}
	.st4{clip-path:url(#SVGID_00000070818957249846998300000015882143299412401336_);fill:#543DFF;}
	.st5{clip-path:url(#SVGID_00000070818957249846998300000015882143299412401336_);fill:#1D1D1B;}
	
		.st6{clip-path:url(#SVGID_00000070818957249846998300000015882143299412401336_);fill:none;stroke:#000000;stroke-width:7.5287;stroke-miterlimit:10;}
	.st7{clip-path:url(#SVGID_00000070818957249846998300000015882143299412401336_);fill:#9678FF;}
	
		.st8{clip-path:url(#SVGID_00000070818957249846998300000015882143299412401336_);fill:none;stroke:#000000;stroke-width:1.2544;stroke-miterlimit:10;}
	.st9{clip-path:url(#SVGID_00000070818957249846998300000015882143299412401336_);}
	
		.st10{clip-path:url(#SVGID_00000070818957249846998300000015882143299412401336_);fill:none;stroke:#000000;stroke-width:9.4126;stroke-miterlimit:10;}
	.st11{clip-path:url(#SVGID_00000070818957249846998300000015882143299412401336_);fill:#8AE5EE;}
	.st12{fill:#1A1A1A;}
	.st13{fill:#1D1D1B;}
	.st14{fill:none;stroke:#000000;stroke-width:8.4472;stroke-miterlimit:10;}
	.st15{fill:#9678FF;}
	.st16{fill:none;stroke:#000000;stroke-width:1.4079;stroke-miterlimit:10;}
	.st17{fill:none;stroke:#000000;stroke-width:10.5567;stroke-miterlimit:10;}
	.st18{fill:#8AE5EE;}
	.st19{fill:none;}
	.st20{clip-path:url(#SVGID_00000148632059091017256360000004599159835517096351_);}
	.st21{fill:#A8F2F2;}
	.st22{fill:#1C1C1B;stroke:#012336;stroke-width:8.7402;stroke-miterlimit:10;}
	.st23{stroke:#FFFFFF;stroke-width:4;stroke-miterlimit:10;}
	.st24{fill:none;stroke:#000000;stroke-width:10;stroke-miterlimit:10;}
</style>
<polygon class="st1" points="209.28,316.84 190.48,312.62 185.56,336.46 188.86,360 206.38,375.42 234.52,344.07 235.58,327.08 
	227.6,312.74 "/>
<path class="st21" d="M359.22,0h-18.64c-8.19,0-8.19,12.7,0,12.7h18.64c19.25,0,34.9,15.6,34.9,34.78v146.97
	c0,19.18-15.66,34.78-34.9,34.78h-21.14c-1.39,0-2.75,0.46-3.86,1.31l-38.79,29.67v-24.62c0-3.51-2.84-6.35-6.35-6.35H211.8
	c-6.33,0-12.41-1.67-17.78-4.85v-71.29c0-13.35-6.8-25.15-17.13-32.13V47.48c0-19.18,15.66-34.78,34.91-34.78h88.99
	c8.19,0,8.19-12.7,0-12.7H211.8c-26.25,0-47.61,21.3-47.61,47.48v67.9c-2.91-0.69-5.94-1.07-9.05-1.07H38.88
	C17.44,114.31,0,131.71,0,153.09v13.71c0,8.19,12.7,8.19,12.7,0v-13.71c0-14.38,11.74-26.08,26.18-26.08h116.25
	c14.44,0,26.18,11.7,26.18,26.08v73.82c-0.08,0.56-0.07,1.13,0,1.68v40.4c0,0.8-0.05,1.59-0.12,2.38h-13.1
	c-14.43,0-26.46,10.42-28.96,24.1c-0.58,0.22-1.13,0.52-1.65,0.92l-28.4,21.93v-16.9c0-3.51-2.84-6.35-6.35-6.35H38.88
	c-14.44,0-26.18-11.7-26.18-26.08v-64.08c0-8.19-12.7-8.19-12.7,0v64.08c0,21.39,17.44,38.78,38.88,38.78H96.4v23.48
	c0,5.09,6.19,8.15,10.23,5.03l32.04-24.74v71.44c0,16.19,13.21,29.37,29.44,29.37h38.97v14.82c0,5.09,6.19,8.15,10.23,5.03
	l25.7-19.85h7.59c16.23,0,29.44-13.17,29.44-29.37v-11.28c0-8.19-12.7-8.19-12.7,0v11.28c0,9.19-7.51,16.67-16.74,16.67h-9.76
	c-1.4,0-2.77,0.47-3.88,1.32l-17.19,13.27V406c0-3.51-2.84-6.35-6.35-6.35H168.1c-9.23,0-16.74-7.48-16.74-16.67v-82.25
	c0-9.19,7.51-16.67,16.74-16.67h82.5c9.23,0,16.74,7.48,16.74,16.67v31.18c0,8.19,12.7,8.19,12.7,0v-31.17
	c0-16.19-13.21-29.37-29.44-29.37h-56.65c0.05-0.79,0.07-32.87,0.07-32.87c5.6,2.25,11.6,3.42,17.78,3.42h70.94v31.13
	c0,5.08,6.16,8.14,10.21,5.04l47.29-36.17h18.99c26.25,0,47.61-21.3,47.61-47.48V47.48C406.82,21.3,385.47,0,359.22,0L359.22,0z"/>
<path class="st21" d="M301.38,46.92c-8.06-2.06-16.28,4.31-16.28,12.64c0,9.1-3.32,17.88-9.34,24.7l-17.5,19.8
	c-1.13-1.74-3.09-2.89-5.32-2.89h-34.16c-3.51,0-6.35,2.84-6.35,6.35v76.85c0,3.51,2.84,6.35,6.35,6.35h34.16
	c2.57,0,4.77-1.52,5.77-3.71c6.92,4.23,14.93,6.51,23.08,6.51h60.36c9.22,0,16.83-8,16.4-17.2c-0.19-4.07,0.02-58.78,0.02-60
	c0-9.05-7.37-16.42-16.4-16.42l-31.39-0.09l1.3-3.08c5.94-14.07,4.96-30.38-2.61-43.64C307.71,49.99,304.83,47.8,301.38,46.92
	C297.92,46.04,304.83,47.8,301.38,46.92C293.31,44.86,304.83,47.8,301.38,46.92L301.38,46.92z M246.59,178.02h-21.46v-64.15h21.46
	V178.02z M342.16,112.6c2.05,0,3.72,1.67,3.72,3.72c0,1.21-0.01,4.49-0.03,8.93c-0.09,24.55-0.16,47.8,0.02,51.66
	c0.07,1.39-0.61,2.32-1.02,2.75c-0.71,0.74-1.67,1.15-2.69,1.15H281.8c-7.2,0-14.24-2.49-19.83-7.02l-2.67-2.16v-49.56l25.99-29.41
	c8.07-9.15,12.52-20.9,12.52-33.11c0-0.36,0.49-0.45,0.65-0.17c5.62,9.84,6.35,21.95,1.94,32.39l-5.01,11.87
	c-0.83,1.96-0.62,4.2,0.55,5.97c1.17,1.77,3.15,2.84,5.28,2.85L342.16,112.6z"/>
<path class="st21" d="M54.38,220.57c-3.51,0-6.35,2.84-6.35,6.35c0,3.51,2.84,6.35,6.35,6.35H73.1l-3.5,21.15
	c-0.57,3.46,1.77,6.73,5.23,7.3c0.35,0.06,0.7,0.09,1.04,0.09c3.05,0,5.74-2.21,6.26-5.32l3.84-23.22h15.32l-3.5,21.15
	c-0.57,3.46,1.77,6.73,5.23,7.3c0.35,0.06,0.7,0.09,1.04,0.09c3.05,0,5.74-2.21,6.26-5.32l3.84-23.22h25.48
	c3.51,0,6.35-2.84,6.35-6.35c0-3.51-2.84-6.35-6.35-6.35h-23.38l2.56-15.49h20.82c3.51,0,6.35-2.84,6.35-6.35
	c0-3.51-2.84-6.35-6.35-6.35h-18.72l3.5-21.15c0.57-3.46-1.77-6.73-5.23-7.3c-3.46-0.57-6.73,1.77-7.3,5.23l-3.84,23.22H92.73
	l3.5-21.15c0.57-3.46-1.77-6.73-5.23-7.3c-3.47-0.57-6.73,1.77-7.3,5.23l-3.84,23.22H54.38c-3.51,0-6.35,2.84-6.35,6.35
	s2.84,6.35,6.35,6.35h23.38l-2.56,15.49L54.38,220.57z M90.63,205.08h15.32l-2.56,15.49H88.07L90.63,205.08z"/>
<path class="st21" d="M209.28,316.84c-5.13-4.22-11.95-5.89-18.79-4.22c-8.77,2.13-17.62,10.33-17.62,23.84
	c0,8.41,3.07,15.71,9.38,22.32c5.16,5.4,12.6,10.53,24.13,16.64c0.93,0.49,1.95,0.74,2.97,0.74s2.04-0.25,2.97-0.74
	c20.12-10.66,33.51-21.37,33.51-38.96c0-13.59-9.16-21.7-18.25-23.72C220.77,311.23,214.16,312.84,209.28,316.84L209.28,316.84z
	 M233.14,336.46c0,9.49-6.29,16.51-23.79,26.14c-17.49-9.63-23.79-16.65-23.79-26.14c0-7.06,4.09-10.57,7.91-11.5
	c0.71-0.17,1.46-0.27,2.24-0.27c2.88,0,6.04,1.33,7.99,5.11c1.11,2.15,3.36,3.49,5.77,3.44c2.42-0.05,4.6-1.47,5.63-3.66
	c2.06-4.4,6.38-5.18,9.74-4.43C228.86,326.03,233.14,329.47,233.14,336.46z"/>
</svg>
