<svg id="Capa_1" data-name="Capa 1" xmlns="http://www.w3.org/2000/svg" viewBox="0 0 819.68 825.6"><defs><style>.cls-1{fill:#1d1d1b;}.cls-2{fill:#9678ff;}.cls-3{fill:#8ae5ee;}.cls-4{fill:#1a1a1a;}</style></defs><path class="cls-1" d="M431.82,383a2.59,2.59,0,0,0-.19.33c-.19.41-.36.82-.53,1.23-2.38,5.74-3.35,11.66-1.89,17.78,2,8.46,7.52,13.91,15.41,17a31.9,31.9,0,0,0,18.57,1.38,30.64,30.64,0,0,0,13.22-6,17.44,17.44,0,0,0,6.34-9.46c.56-2.14,1.81-2.52,3.45-1a23.13,23.13,0,0,0,7.3,4.52c8,3,15.81,2.23,23.31-1.69a23.68,23.68,0,0,0,11.48-12,1.73,1.73,0,0,1,2.32-1.21,1.71,1.71,0,0,1,.82,2.49,25.67,25.67,0,0,1-1.86,3.66c-4.73,7.24-11.57,11.35-19.9,13.21a30.09,30.09,0,0,1-10,.55,28.18,28.18,0,0,1-13.56-5.2c-.19-.14-.4-.25-.63-.39-.1.18-.19.32-.26.48a22.32,22.32,0,0,1-7.56,9.4,35.06,35.06,0,0,1-18.19,6.64,34.5,34.5,0,0,1-19.69-3.81,29.9,29.9,0,0,1-7.54-5.76,10.79,10.79,0,0,0-3.14,4.56,27.57,27.57,0,0,0-1.82,11.58,26.34,26.34,0,0,0,3.15,12.43c.43.75,1,1.44,1.4,2.06a69.67,69.67,0,0,1,5.19-5.14c9.47-7.63,20.36-10.27,32.27-8.51a31.83,31.83,0,0,1,22.21,13.62,50.92,50.92,0,0,1,3.2,5.62,1.66,1.66,0,0,1-.7,2.44,1.77,1.77,0,0,1-2.41-1.08c-.06-.12-.11-.24-.17-.37a29.48,29.48,0,0,0-10.18-12A32.24,32.24,0,0,0,461.65,435a36.06,36.06,0,0,0-21.07,7.14c-7,5.29-10.78,12-8.3,21.07a2.43,2.43,0,0,1-.51,1.75,12.17,12.17,0,0,0-2.14,4.63,17.87,17.87,0,0,0,1.56,11.59,19.5,19.5,0,0,0,3.63,5.37,44.86,44.86,0,0,1,11.2-7.72c1.24-.63,2.26-.42,2.74.56s0,1.85-1.14,2.49c-1.71.93-3.45,1.84-5.09,2.89a28.46,28.46,0,0,0-10.83,11.82c-2.81,5.93-2.89,12.18-1.82,18.58.79,4.74,4,5.85,7.44,5.95a29,29,0,0,0,9.6-1.55,88.43,88.43,0,0,0,31-17.51,38.78,38.78,0,0,0,8.75-10,11.36,11.36,0,0,0,1.74-5.17c-.47-.08-.86-.16-1.26-.21a29.8,29.8,0,0,1-10.89-3.49c-10.12-5.67-15.33-14.62-17.09-25.83a1.66,1.66,0,0,1,1.41-2,1.68,1.68,0,0,1,2,1.51c.22,1.11.4,2.23.64,3.33,3.76,17,19.67,26.8,36.52,22.39a40.77,40.77,0,0,0,16.33-9c6.17-5.35,10.63-11.78,12.07-20a27,27,0,0,0,0-9.23c-.69,0-1.3,0-1.92,0a18.87,18.87,0,0,1-7.58-1.62A22,22,0,0,1,506.76,431,21.68,21.68,0,0,1,505,420.57a1.55,1.55,0,0,1,2.47-1.18,2.78,2.78,0,0,1,.71,1.89A19.77,19.77,0,0,0,512.36,434a18.43,18.43,0,0,0,20.26,6,31.11,31.11,0,0,0,13.84-9.27c11.33-12.93,17.08-27.53,13-44.95a2.63,2.63,0,0,1,.43-1.88,28.68,28.68,0,0,0,5.63-17.4,40.66,40.66,0,0,0-6.87-22.56,28.32,28.32,0,0,0-7.21-7.94c-.46-.32-.95-.59-1.63-1,.14,1.48.32,2.7.35,3.92a39,39,0,0,1-1.56,12.77c-5.75,18.29-18,30.18-36,36.45a18.78,18.78,0,0,1-4,.87,2,2,0,0,1-1.59-.8,2,2,0,0,1,.06-1.77c.27-.44,1-.65,1.55-.83,2.29-.72,4.66-1.2,6.86-2.1a52.22,52.22,0,0,0,23.44-19.18,43.67,43.67,0,0,0,7.28-17.51,37.46,37.46,0,0,0-.28-14.19A46.1,46.1,0,0,0,540,317.3a39.73,39.73,0,0,0-47.69-15.88c-1.38.54-2.7,1.25-4.07,1.89.57,1,1.12,1.8,1.5,2.67,4.54,10.36,4.42,20.72-1.1,30.56-7.06,12.59-18.25,19.44-32.47,21.33a20.8,20.8,0,0,1-12.6-2,13,13,0,0,1-5.56-5.32,1.69,1.69,0,0,1,.67-2.46,1.82,1.82,0,0,1,2.31.75,10.2,10.2,0,0,0,5.53,4.64,20.47,20.47,0,0,0,10.63.9,39.61,39.61,0,0,0,19.65-8.79c10.4-8.62,14.62-19.53,11.71-32.92a17,17,0,0,0-5-9.35c-3.22-2.92-7.15-3.59-11.32-3.22a38.11,38.11,0,0,0-13.55,4.23,79.71,79.71,0,0,0-16.67,11.56A35.26,35.26,0,0,0,432,330c-2.25,5.85-2.9,12-3.17,18.22-.21,5-.16,9.93-.19,14.9a28.1,28.1,0,0,0,1.75,10.27c2.78,7.29,7.74,12.13,15.64,13.43,6.37,1.05,12.34-.55,18-3.34,5.21-2.57,8.82-6.85,11.63-11.84.67-1.18,1.21-1.47,2.42-1.1a16.15,16.15,0,0,0,7.63.28,36.46,36.46,0,0,0,21-11.75c6.87-7.59,9.21-16.25,5.5-26.13a1.72,1.72,0,0,1,.95-2.45c1-.34,1.84.14,2.28,1.32,3,8,2.63,15.9-1.67,23.37-5,8.67-12.58,14.22-21.87,17.57a25.44,25.44,0,0,1-13.13,1.51,1.38,1.38,0,0,0-1,.56c-1.86,2.28-3.51,4.74-5.54,6.85-4.65,4.83-10.64,7.13-17.08,8.33s-12.93.57-18.64-3.25c-1.64-1.09-3.08-2.47-4.68-3.76m99.73,60.89c.11,1.18.25,2.34.31,3.49a31.94,31.94,0,0,1-6.14,20.57A45.84,45.84,0,0,1,501,485.72a49.59,49.59,0,0,1-8.2,1.22c-.69.09-1,.23-1.08,1-.5,3.84-2.51,7-4.86,9.93a63.65,63.65,0,0,1-12.94,11.8,93.46,93.46,0,0,1-23.84,12.51c-4.39,1.52-8.87,2.67-13.58,2.32a16.07,16.07,0,0,1-4-.82,8.25,8.25,0,0,1-5.59-6.21,35.93,35.93,0,0,1-1.1-10.27c.35-6.47,2.14-12.45,6.27-17.59a2.49,2.49,0,0,0,.24-.34c-1.18-1.71-2.46-3.29-3.43-5-3-5.37-4-11-2.12-17,.37-1.13,1.05-2.15,1.52-3.25a2.8,2.8,0,0,0,.27-1.51,20.28,20.28,0,0,1,1.28-12.76,1.24,1.24,0,0,0-.05-1.07,22.8,22.8,0,0,1-5.37-11.92,33.51,33.51,0,0,1,1.53-18.3,17.47,17.47,0,0,1,4-6.05,26.4,26.4,0,0,1-4.16-9.49c-1.63-7.59-.28-14.78,3.05-21.66a2.79,2.79,0,0,0,0-3,29.19,29.19,0,0,1-3.64-14.59c0-6.23.16-12.47.4-18.69a58.67,58.67,0,0,1,2.29-13.13c2.19-8.06,6.83-14.41,13.18-19.74,7-5.87,14.42-10.9,23.15-13.78A27.2,27.2,0,0,1,478.38,297a15.21,15.21,0,0,1,6.81,3.21,1,1,0,0,0,1.33.17c10.14-5.57,20.87-6.47,31.84-3.26,14.83,4.33,24.32,14.34,29.34,28.78.49,1.42.76,2.91,1.19,4.35a1.53,1.53,0,0,0,.69.89c4.57,1.94,7.95,5.29,10.77,9.25a43.7,43.7,0,0,1,8.52,27.65,31.65,31.65,0,0,1-5.49,16.77A1.77,1.77,0,0,0,563,386c2.31,9.67,1.16,19.06-2.38,28.22a54.11,54.11,0,0,1-16.2,23,31.8,31.8,0,0,1-12.3,6.4c-.19,0-.38.13-.61.21"/><path d="M438.22,528.77c-.66,0-1.34,0-2-.07a20.5,20.5,0,0,1-5.06-1,12.54,12.54,0,0,1-8.33-9.22,39.73,39.73,0,0,1-1.2-11.48,34.29,34.29,0,0,1,5.51-17.73,30.55,30.55,0,0,1-1.91-2.95c-3.79-6.78-4.62-13.63-2.45-20.37a16.53,16.53,0,0,1,1.15-2.58c.13-.25.26-.5.38-.75a24.34,24.34,0,0,1,1-12.81,28,28,0,0,1-5-12.37c-1.29-7.6-.71-14.33,1.76-20.56a21.71,21.71,0,0,1,2.74-4.91,29.83,29.83,0,0,1-3.08-8.19c-1.68-7.86-.61-15.92,3.18-24a33.63,33.63,0,0,1-3.9-16.16c0-5.91.15-12.07.41-18.85a63.8,63.8,0,0,1,2.43-14.06c2.29-8.42,7.05-15.58,14.54-21.87C447,301.59,454.8,297,462.9,294.28c6-2,11.3-2.41,16.33-1.38a19.66,19.66,0,0,1,7,2.89c10.42-5.19,21.61-6.1,33.28-2.69,15.68,4.58,26.49,15.16,32.15,31.46.34,1,.58,1.94.81,2.86,0,.17.08.35.13.52a30.55,30.55,0,0,1,11.16,10,48,48,0,0,1,9.3,30.27,35.94,35.94,0,0,1-5.65,18.11c2,9.49,1,19.38-2.84,29.42a58.45,58.45,0,0,1-17.47,24.75,37,37,0,0,1-11.07,6.35,2.45,2.45,0,0,1,0,.27,36.13,36.13,0,0,1-6.92,23.24,50.19,50.19,0,0,1-26.94,19.38,35.46,35.46,0,0,1-6.78,1.14,26.28,26.28,0,0,1-5.27,9.58,66.48,66.48,0,0,1-13.79,12.61,97.08,97.08,0,0,1-24.92,13.07A40.46,40.46,0,0,1,438.22,528.77Zm9.1-54.49a5.87,5.87,0,0,1,1.89.31,5.72,5.72,0,0,1,3.35,3c1.45,3,.25,6.29-2.91,8l-1,.54c-1.37.74-2.66,1.44-3.87,2.21a24.1,24.1,0,0,0-9.28,10.06c-2.1,4.43-2.56,9.54-1.48,16.09.28,1.65.67,2.34,3.41,2.42a24.63,24.63,0,0,0,8.2-1.36,83.61,83.61,0,0,0,29.53-16.7,34.58,34.58,0,0,0,7.68-8.65,33,33,0,0,1-8.67-3.33c-10.66-6-17.12-15.68-19.2-28.85a5.93,5.93,0,0,1,11.69-2c.1.5.19,1,.28,1.49s.21,1.18.34,1.77a24.86,24.86,0,0,0,31.33,19.21,36.35,36.35,0,0,0,14.63-8.11c6-5.23,9.53-11,10.68-17.53a22.86,22.86,0,0,0,.33-4.37,22.43,22.43,0,0,1-7.41-1.91,26.18,26.18,0,0,1-14-13.88,25.6,25.6,0,0,1-2.12-12.48,5.8,5.8,0,0,1,.57-2.05c-.72,0-1.43-.09-2.14-.18a33,33,0,0,1-12.11-3.78,26.91,26.91,0,0,1-6.93,7.29,38.73,38.73,0,0,1-12.78,6.14c.84.09,1.69.19,2.55.32a35.87,35.87,0,0,1,25,15.38A44.87,44.87,0,0,1,498,448.6l.42.79a6.1,6.1,0,0,1,.45,4.8,5.79,5.79,0,0,1-3.1,3.43,6,6,0,0,1-8-3c-.07-.13-.11-.24-.16-.34a25.05,25.05,0,0,0-8.76-10.38,27.79,27.79,0,0,0-17.09-4.61,31.59,31.59,0,0,0-18.66,6.29c-6.47,4.91-8.56,10-6.78,16.58a6.58,6.58,0,0,1-1.17,5.36,8,8,0,0,0-1.42,3,13.72,13.72,0,0,0,1.26,8.92c.16.33.32.66.49,1a54.81,54.81,0,0,1,8.59-5.31A7.12,7.12,0,0,1,447.32,474.28Zm-22.88-10.93h0Zm66.52-10Zm-64.29-1.85h0ZM426,448v0Zm6.95-26.53a23.49,23.49,0,0,0-1.44,9.67,25.2,25.2,0,0,0,1.29,7.6c.5-.47,1-.94,1.58-1.39a44.34,44.34,0,0,1,16.69-8.56,36.82,36.82,0,0,1-13.3-4.17A35.67,35.67,0,0,1,432.94,421.46Zm78.17-4.23a7.46,7.46,0,0,1,1.25,4,15.6,15.6,0,0,0,3.29,10.07A14.28,14.28,0,0,0,531.31,436a26.88,26.88,0,0,0,12-8.05c11.54-13.15,15.48-26.62,12.06-41.2a6.79,6.79,0,0,1,1.14-5.35,24.25,24.25,0,0,0,4.8-14.9,36.58,36.58,0,0,0-6.19-20.25c-.3-.47-.6-.91-.9-1.34a37.81,37.81,0,0,1-1.57,8c-6,19.15-19,32.33-38.63,39.18a22.25,22.25,0,0,1-4.95,1.08,5.87,5.87,0,0,1-5.58-9,6.41,6.41,0,0,1,3.86-2.66c.91-.28,1.79-.53,2.67-.77a34.54,34.54,0,0,0,3.9-1.22,47.76,47.76,0,0,0,21.57-17.68A39.3,39.3,0,0,0,542,346.07a33.4,33.4,0,0,0-.24-12.6,42.06,42.06,0,0,0-5.39-13.92c-8.84-14.06-27-20.17-42.4-14.26,4.7,11.43,4.12,22.92-1.7,33.31-7.53,13.43-19.51,21.32-35.6,23.46a24.89,24.89,0,0,1-15.11-2.47,17.17,17.17,0,0,1-7.31-7,6,6,0,0,1-.53-4.76,5.82,5.82,0,0,1,3-3.51,6,6,0,0,1,7.92,2.5,6,6,0,0,0,3.35,2.72,16.09,16.09,0,0,0,8.47.66,35.41,35.41,0,0,0,17.58-7.86c9.43-7.81,12.79-17.23,10.28-28.78a12.71,12.71,0,0,0-3.72-7.11c-2-1.8-4.48-2.46-8.11-2.14a33.38,33.38,0,0,0-12,3.8,75.12,75.12,0,0,0-15.78,11,30.87,30.87,0,0,0-8.8,12.45c-2.14,5.56-2.66,11.65-2.89,16.88-.15,3.71-.17,7.53-.18,11.22,0,1.18,0,2.35,0,3.53a24.16,24.16,0,0,0,1.48,8.74c2.42,6.35,6.35,9.77,12.37,10.76,4.83.8,9.74-.14,15.44-2.95,3.88-1.92,7-5.14,9.82-10.14,2.22-3.93,5.54-3.61,7.33-3.06a12,12,0,0,0,5.65.17,32.39,32.39,0,0,0,18.66-10.43c6.12-6.77,7.65-13.9,4.68-21.82a6.26,6.26,0,0,1,.12-4.92,5.77,5.77,0,0,1,3.42-3,5.94,5.94,0,0,1,7.6,3.85c3.53,9.47,2.87,18.53-2,26.94-5.18,9-13.29,15.54-24.11,19.44a30.5,30.5,0,0,1-13.24,2l-.86,1.12a53.39,53.39,0,0,1-4,4.79c-4.7,4.88-11,8-19.35,9.55s-15.58.24-21.75-3.88l-.47-.32a22.29,22.29,0,0,0-.37,11.4c1.6,6.68,5.8,11.29,12.85,14.09a27.68,27.68,0,0,0,16.17,1.16,26.46,26.46,0,0,0,11.45-5.15,13.3,13.3,0,0,0,4.87-7.22c.89-3.4,3-4.5,4.2-4.85s3.56-.61,6.17,1.74a18.76,18.76,0,0,0,6,3.7c6.64,2.52,13.14,2,19.86-1.47a19.46,19.46,0,0,0,9.53-9.88,5.93,5.93,0,0,1,11.06-.31,6.27,6.27,0,0,1-.16,4.93,28.28,28.28,0,0,1-2.19,4.25C528.12,410,520.72,415,511.11,417.23Zm21.08-20.53ZM478,378.41h0Zm3-1v0Zm70.17-50.18,0,0Z"/><path class="cls-2" d="M431.82,383c1.6,1.29,3,2.67,4.68,3.76,5.71,3.82,12.05,4.48,18.64,3.25s12.43-3.51,17.08-8.33c2-2.11,3.68-4.57,5.54-6.85a1.38,1.38,0,0,1,1-.56,25.44,25.44,0,0,0,13.13-1.51c9.29-3.35,16.89-8.9,21.88-17.57,4.29-7.47,4.66-15.33,1.66-23.37-.44-1.18-1.3-1.66-2.28-1.32a1.72,1.72,0,0,0-.95,2.45c3.71,9.88,1.37,18.54-5.5,26.13a36.46,36.46,0,0,1-21,11.75,16.15,16.15,0,0,1-7.63-.28c-1.21-.37-1.75-.08-2.42,1.1-2.82,5-6.42,9.27-11.63,11.84-5.65,2.79-11.62,4.39-18,3.34-7.9-1.3-12.86-6.14-15.63-13.43a27.9,27.9,0,0,1-1.76-10.27c0-5,0-9.94.19-14.9.27-6.2.91-12.37,3.17-18.22a35.26,35.26,0,0,1,10-14.12,79.45,79.45,0,0,1,16.67-11.56,38.11,38.11,0,0,1,13.55-4.23c4.17-.37,8.09.3,11.32,3.22a17,17,0,0,1,5,9.35c2.91,13.39-1.31,24.3-11.72,32.92a39.54,39.54,0,0,1-19.64,8.79,20.47,20.47,0,0,1-10.63-.9,10.2,10.2,0,0,1-5.53-4.64,1.82,1.82,0,0,0-2.31-.75,1.69,1.69,0,0,0-.67,2.46,13,13,0,0,0,5.56,5.32,20.82,20.82,0,0,0,12.6,2c14.22-1.89,25.41-8.74,32.47-21.33,5.52-9.84,5.64-20.2,1.1-30.56-.38-.87-.93-1.66-1.5-2.67,1.37-.64,2.69-1.35,4.07-1.89A39.73,39.73,0,0,1,540,317.3a46.1,46.1,0,0,1,5.95,15.3,37.25,37.25,0,0,1,.27,14.19,43.37,43.37,0,0,1-7.27,17.51,52.22,52.22,0,0,1-23.44,19.18c-2.2.9-4.57,1.38-6.86,2.1-.56.18-1.28.39-1.55.83a2,2,0,0,0-.06,1.77,2,2,0,0,0,1.59.8,18.78,18.78,0,0,0,4-.87c17.95-6.27,30.24-18.16,36-36.45a39,39,0,0,0,1.56-12.77c0-1.22-.21-2.44-.35-3.92.68.42,1.17.69,1.63,1a28,28,0,0,1,7.2,7.94,40.59,40.59,0,0,1,6.88,22.56,28.68,28.68,0,0,1-5.63,17.4,2.63,2.63,0,0,0-.43,1.88c4.09,17.42-1.66,32-13,44.95A31.11,31.11,0,0,1,532.62,440a18.43,18.43,0,0,1-20.26-6,19.77,19.77,0,0,1-4.23-12.67,2.78,2.78,0,0,0-.71-1.89,1.55,1.55,0,0,0-2.47,1.18A21.68,21.68,0,0,0,506.76,431c2.34,5.56,6.46,9.25,11.84,11.68a18.79,18.79,0,0,0,7.57,1.62c.61,0,1.22,0,1.92,0a27,27,0,0,1,0,9.23c-1.44,8.21-5.9,14.64-12.07,20a40.77,40.77,0,0,1-16.33,9c-16.85,4.41-32.76-5.38-36.52-22.39-.25-1.1-.42-2.22-.64-3.33a1.71,1.71,0,1,0-3.37.53c1.76,11.21,7,20.16,17.09,25.83a29.8,29.8,0,0,0,10.89,3.49c.4.05.79.13,1.26.21a11.48,11.48,0,0,1-1.74,5.17,38.78,38.78,0,0,1-8.75,10,88.43,88.43,0,0,1-31,17.51,29,29,0,0,1-9.59,1.55c-3.47-.1-6.66-1.21-7.45-5.95-1.07-6.4-1-12.65,1.82-18.58a28.46,28.46,0,0,1,10.83-11.82c1.64-1.05,3.38-2,5.09-2.89,1.16-.64,1.6-1.54,1.14-2.49s-1.5-1.19-2.74-.56a45,45,0,0,0-11.2,7.72,19.5,19.5,0,0,1-3.63-5.37,17.87,17.87,0,0,1-1.56-11.59,12.24,12.24,0,0,1,2.14-4.63,2.43,2.43,0,0,0,.51-1.75c-2.48-9.11,1.32-15.78,8.3-21.07A36.06,36.06,0,0,1,461.65,435a32.24,32.24,0,0,1,19.59,5.32,29.48,29.48,0,0,1,10.18,12c.06.12.11.25.17.37A1.77,1.77,0,0,0,494,453.8a1.66,1.66,0,0,0,.7-2.44,50.92,50.92,0,0,0-3.2-5.62,31.83,31.83,0,0,0-22.21-13.62c-11.91-1.76-22.8.88-32.27,8.51a69.67,69.67,0,0,0-5.19,5.14c-.42-.62-1-1.31-1.4-2.06a26.46,26.46,0,0,1-3.15-12.43,27.57,27.57,0,0,1,1.82-11.58,10.79,10.79,0,0,1,3.14-4.56,29.9,29.9,0,0,0,7.54,5.76,34.5,34.5,0,0,0,19.69,3.81,35.06,35.06,0,0,0,18.19-6.64,22.32,22.32,0,0,0,7.56-9.4c.07-.16.16-.3.26-.48.23.14.44.25.63.39a28.19,28.19,0,0,0,13.55,5.2,30.12,30.12,0,0,0,10-.55c8.33-1.86,15.16-6,19.9-13.21a25.67,25.67,0,0,0,1.86-3.66,1.7,1.7,0,0,0-.82-2.49c-1-.39-1.85.07-2.32,1.21a23.68,23.68,0,0,1-11.48,12c-7.5,3.92-15.29,4.72-23.31,1.69a23.13,23.13,0,0,1-7.3-4.52c-1.64-1.48-2.89-1.1-3.45,1a17.44,17.44,0,0,1-6.34,9.46,30.64,30.64,0,0,1-13.22,6,31.9,31.9,0,0,1-18.57-1.38c-7.89-3.12-13.39-8.57-15.41-17-1.46-6.12-.49-12,1.89-17.78.17-.41.35-.82.53-1.23.05-.12.14-.23.19-.33"/><path d="M438,521.87h-.69c-4.75-.15-7.41-2.28-8.12-6.54-1.26-7.6-.66-13.63,1.89-19a29.23,29.23,0,0,1,11.08-12.11c1.35-.86,2.77-1.63,4.15-2.38l1-.53c.84-.46,1.12-1,.85-1.56a.93.93,0,0,0-.5-.48,1.82,1.82,0,0,0-1.29.24,43.57,43.57,0,0,0-11,7.6l-.51.49-.49-.51a20.26,20.26,0,0,1-3.76-5.56,18.55,18.55,0,0,1-1.61-12,12.82,12.82,0,0,1,2.26-4.89,1.9,1.9,0,0,0,.4-1.16c-2.33-8.54.47-15.68,8.55-21.81a37,37,0,0,1,21.48-7.29,33.07,33.07,0,0,1,20,5.45,30.28,30.28,0,0,1,10.43,12.28l.07.17.09.19c.22.44.69,1.12,1.48.75a1,1,0,0,0,.52-.53,1.18,1.18,0,0,0-.15-.94l-.42-.81a41.78,41.78,0,0,0-2.73-4.73,31.13,31.13,0,0,0-21.73-13.34c-12-1.77-22.65,1.05-31.73,8.36a35.25,35.25,0,0,0-3.46,3.37c-.54.57-1.09,1.16-1.67,1.73l-.6.6-.48-.7-.41-.58a16.93,16.93,0,0,1-1-1.53,26.86,26.86,0,0,1-3.25-12.75,28.41,28.41,0,0,1,1.87-11.88,11.47,11.47,0,0,1,3.37-4.85l.5-.38.44.46a29.44,29.44,0,0,0,7.36,5.62,33.67,33.67,0,0,0,19.3,3.73,34.49,34.49,0,0,0,17.83-6.51,21.55,21.55,0,0,0,7.33-9.11c.06-.12.12-.24.2-.38l.44-.81.85.52a5.4,5.4,0,0,1,.47.3,27.43,27.43,0,0,0,13.22,5.06,29.35,29.35,0,0,0,9.77-.54c8.68-1.94,15.05-6.16,19.46-12.91a25.74,25.74,0,0,0,1.81-3.55,1.43,1.43,0,0,0,.1-1.07.91.91,0,0,0-.54-.49c-.76-.3-1.18.29-1.41.83a24.54,24.54,0,0,1-11.8,12.36c-7.93,4.13-16,4.71-23.89,1.71a23.74,23.74,0,0,1-7.52-4.65c-.59-.53-1.13-.78-1.46-.68s-.64.6-.84,1.38a18,18,0,0,1-6.58,9.83,31.26,31.26,0,0,1-13.52,6.12,32.88,32.88,0,0,1-19-1.41c-8.54-3.39-13.87-9.28-15.83-17.53-1.38-5.79-.76-11.74,1.92-18.21.17-.42.35-.83.54-1.25a1.92,1.92,0,0,1,.18-.31l.41-.72.69.44c.51.41,1,.83,1.49,1.25a33.3,33.3,0,0,0,3.13,2.48C442,389.59,448,390.62,455,389.3c7.38-1.38,12.69-4,16.7-8.13a49.94,49.94,0,0,0,3.59-4.35c.63-.83,1.26-1.65,1.91-2.46a2,2,0,0,1,1.67-.8,24.8,24.8,0,0,0,12.77-1.48c9.83-3.54,16.86-9.19,21.51-17.26,4.06-7.08,4.6-14.74,1.61-22.77-.21-.56-.61-1.17-1.4-.91a.91.91,0,0,0-.55.46,1.41,1.41,0,0,0,0,1.08c3.63,9.67,1.74,18.7-5.63,26.85a37.27,37.27,0,0,1-21.45,12,16.62,16.62,0,0,1-8-.31c-.8-.24-1.05-.2-1.6.77-3.28,5.82-7.18,9.79-11.93,12.13-6.57,3.25-12.6,4.36-18.42,3.4-7.71-1.27-13.15-5.93-16.17-13.87a28.88,28.88,0,0,1-1.81-10.53c0-1.14,0-2.29,0-3.43,0-3.77,0-7.66.18-11.49.24-5.63.81-12.22,3.21-18.45a36.22,36.22,0,0,1,10.17-14.39,79.1,79.1,0,0,1,16.82-11.66,38.51,38.51,0,0,1,13.8-4.3c5-.44,8.84.67,11.85,3.4a17.68,17.68,0,0,1,5.23,9.72c2.89,13.33-1.13,24.64-12,33.62a40.26,40.26,0,0,1-20,8.93,21,21,0,0,1-11-.94,10.79,10.79,0,0,1-5.89-5,1.12,1.12,0,0,0-1.38-.45,1,1,0,0,0-.51.57,1.21,1.21,0,0,0,.15.92,12.36,12.36,0,0,0,5.27,5,20.09,20.09,0,0,0,12.18,1.94c14.47-1.92,25.22-9,31.95-21,5.28-9.42,5.64-19.49,1.06-29.92a14.7,14.7,0,0,0-.91-1.66c-.18-.3-.36-.62-.55-.95l-.38-.67.69-.32c.44-.2.88-.42,1.31-.63.91-.44,1.84-.9,2.8-1.27a40.19,40.19,0,0,1,48.55,16.15,46.83,46.83,0,0,1,6,15.54,38,38,0,0,1,.28,14.45,44.2,44.2,0,0,1-7.39,17.79,53.17,53.17,0,0,1-23.75,19.43,38.84,38.84,0,0,1-4.45,1.41c-.83.23-1.65.46-2.47.71a3.31,3.31,0,0,0-1.16.52,1.38,1.38,0,0,0-.05,1.05,1.43,1.43,0,0,0,.9.46,17.12,17.12,0,0,0,3.85-.84c18.06-6.3,30-18.41,35.55-36a38.3,38.3,0,0,0,1.53-12.55c0-.79-.11-1.57-.2-2.47,0-.44-.1-.9-.15-1.39l-.13-1.4,1.2.73.63.38c.39.23.72.43,1,.65a28.81,28.81,0,0,1,7.4,8.14,41.49,41.49,0,0,1,7,22.94,29.55,29.55,0,0,1-5.76,17.82,1.9,1.9,0,0,0-.32,1.3c3.81,16.23-.49,31.14-13.14,45.57a31.85,31.85,0,0,1-14.15,9.48,19.16,19.16,0,0,1-21-6.26,20.36,20.36,0,0,1-4.38-13.11,2.2,2.2,0,0,0-.48-1.37.64.64,0,0,0-.68-.1,1,1,0,0,0-.62.82,21,21,0,0,0,1.76,10.14c2.14,5.09,5.9,8.78,11.48,11.3a17.93,17.93,0,0,0,7.29,1.56h2.51l.1.59a27.38,27.38,0,0,1,0,9.47c-1.35,7.73-5.38,14.4-12.3,20.4a41.2,41.2,0,0,1-16.61,9.16,29.78,29.78,0,0,1-37.39-22.92c-.14-.66-.27-1.32-.39-2-.08-.45-.16-.9-.25-1.35a1,1,0,0,0-1.16-.95,1,1,0,0,0-.83,1.23c1.86,11.77,7.33,20.05,16.74,25.32A28.94,28.94,0,0,0,487.24,486l.91.15,1,.18,0,.62a12.14,12.14,0,0,1-1.83,5.48,39.37,39.37,0,0,1-8.9,10.19,89.55,89.55,0,0,1-31.25,17.65A30.41,30.41,0,0,1,438,521.87Zm9.34-44.07a2.36,2.36,0,0,1,.75.12,2.23,2.23,0,0,1,1.31,1.2c.62,1.28.07,2.58-1.43,3.4l-1,.54c-1.35.74-2.75,1.5-4.06,2.33a27.87,27.87,0,0,0-10.57,11.53c-2.42,5.1-3,10.87-1.77,18.16.6,3.59,2.69,5.25,6.78,5.37a28.33,28.33,0,0,0,9.36-1.52,88.25,88.25,0,0,0,30.76-17.38,38,38,0,0,0,8.59-9.82,11.45,11.45,0,0,0,1.59-4.24l-.59-.09a30.47,30.47,0,0,1-11.14-3.58c-9.82-5.49-15.52-14.11-17.45-26.33a2.41,2.41,0,1,1,4.76-.78c.09.46.18.92.26,1.38.12.65.23,1.3.38,1.94a28.37,28.37,0,0,0,35.65,21.86A39.81,39.81,0,0,0,515.57,473c6.67-5.78,10.54-12.19,11.84-19.58a26.05,26.05,0,0,0,.08-8.41h-1.32a19.45,19.45,0,0,1-7.86-1.68c-5.92-2.68-9.91-6.62-12.19-12a22.34,22.34,0,0,1-1.87-10.81,2.42,2.42,0,0,1,1.5-2,2,2,0,0,1,2.14.37,3.48,3.48,0,0,1,.95,2.4,19,19,0,0,0,4.07,12.23,17.75,17.75,0,0,0,19.49,5.81,30.41,30.41,0,0,0,13.53-9.07c12.33-14.06,16.53-28.56,12.83-44.32a3.29,3.29,0,0,1,.56-2.46,28.07,28.07,0,0,0,5.48-17A40,40,0,0,0,558,344.3a27.28,27.28,0,0,0-7-7.75l-.37-.24c.1.88.19,1.72.21,2.56a39.64,39.64,0,0,1-1.6,13c-5.67,18-17.92,30.44-36.43,36.9a18.65,18.65,0,0,1-4.16.91,2.69,2.69,0,0,1-2.26-1.14,2.73,2.73,0,0,1,.06-2.5,3.24,3.24,0,0,1,1.9-1.12c.87-.27,1.71-.5,2.55-.73a39.07,39.07,0,0,0,4.3-1.36,51.84,51.84,0,0,0,23.13-18.93,42.88,42.88,0,0,0,7.15-17.23,36.65,36.65,0,0,0-.27-13.92,45.61,45.61,0,0,0-5.85-15.08c-9.76-15.52-29.9-22.22-46.84-15.59-.91.35-1.78.78-2.7,1.23l-.64.31.16.26a15.46,15.46,0,0,1,1,1.82c4.77,10.86,4.39,21.35-1.12,31.18-7,12.41-18.06,19.71-33,21.69a21.44,21.44,0,0,1-13-2.1,13.8,13.8,0,0,1-5.86-5.6,2.59,2.59,0,0,1-.25-2,2.36,2.36,0,0,1,1.22-1.41,2.53,2.53,0,0,1,3.25,1,9.41,9.41,0,0,0,5.16,4.32,19.61,19.61,0,0,0,10.27.86A39,39,0,0,0,476.32,345c10.39-8.61,14.25-19.45,11.47-32.23a16.31,16.31,0,0,0-4.79-9c-2.75-2.48-6.17-3.45-10.78-3a37.15,37.15,0,0,0-13.31,4.16A77.66,77.66,0,0,0,442.4,316.4a34.77,34.77,0,0,0-9.78,13.84c-2.33,6-2.89,12.49-3.12,18-.17,3.8-.18,7.68-.19,11.43,0,1.15,0,2.3,0,3.44a27.65,27.65,0,0,0,1.71,10c2.87,7.54,7.81,11.79,15.09,13,5.52.9,11.26-.17,17.57-3.28,4.54-2.24,8.15-5.92,11.33-11.56.7-1.23,1.51-1.95,3.23-1.43a15.29,15.29,0,0,0,7.3.27,35.86,35.86,0,0,0,20.65-11.53c7-7.73,8.79-16.28,5.36-25.41a2.78,2.78,0,0,1,0-2.18,2.23,2.23,0,0,1,1.37-1.19,2.45,2.45,0,0,1,3.17,1.75c3.15,8.44,2.57,16.5-1.71,24-4.75,8.26-12.24,14.27-22.25,17.88a26,26,0,0,1-13.49,1.54s-.22.17-.34.31c-.64.79-1.26,1.61-1.88,2.42a51.88,51.88,0,0,1-3.69,4.48c-4.23,4.39-9.78,7.1-17.47,8.53-7.42,1.39-13.69.3-19.15-3.35a34.34,34.34,0,0,1-3.27-2.58l-.78-.67c-.11.24-.21.49-.31.73-2.56,6.18-3.16,11.86-1.85,17.35,1.85,7.77,6.89,13.33,15,16.54A31.43,31.43,0,0,0,463.05,420,29.93,29.93,0,0,0,476,414.2a16.73,16.73,0,0,0,6.09-9.09,2.52,2.52,0,0,1,4.6-1.38,22.59,22.59,0,0,0,7.08,4.38c7.53,2.84,15.18,2.29,22.74-1.65,5.41-2.83,9.06-6.64,11.15-11.65a2.42,2.42,0,0,1,3.23-1.6,2.33,2.33,0,0,1,1.32,1.27,2.68,2.68,0,0,1-.12,2.17,27,27,0,0,1-1.91,3.75c-4.62,7.07-11.27,11.49-20.34,13.52a30.82,30.82,0,0,1-10.24.56,28.93,28.93,0,0,1-13.82-5.28,23,23,0,0,1-7.69,9.44,35.9,35.9,0,0,1-18.55,6.78,35,35,0,0,1-20.08-3.91,30.92,30.92,0,0,1-7.25-5.4,11,11,0,0,0-2.44,3.85,27,27,0,0,0-1.77,11.3,25.52,25.52,0,0,0,3.06,12.1,13.16,13.16,0,0,0,.88,1.32q.54-.56,1.05-1.11a37,37,0,0,1,3.61-3.49c9.4-7.57,20.44-10.49,32.81-8.66a32.51,32.51,0,0,1,22.69,13.92,44.2,44.2,0,0,1,2.82,4.89l.42.8a2.63,2.63,0,0,1,.23,2.05,2.35,2.35,0,0,1-1.25,1.36A2.46,2.46,0,0,1,491,453c0-.07-.07-.15-.11-.24l-.06-.14a28.92,28.92,0,0,0-9.94-11.71,31.71,31.71,0,0,0-19.18-5.21,35.48,35.48,0,0,0-20.67,7c-7.57,5.75-10.2,12.39-8,20.32a3.16,3.16,0,0,1-.62,2.36,11.48,11.48,0,0,0-2,4.36,17.12,17.12,0,0,0,1.51,11.15,19,19,0,0,0,3,4.66,46.19,46.19,0,0,1,10.85-7.35A3.74,3.74,0,0,1,447.33,477.8Z"/><path d="M393.53,521.12l.36-.14c0-2.42,0-4.85,0-7.27,0-3.65-.11-7.3-.13-11s0-7.38,0-11.07V362.17q0-11,0-22.08c0-1,.1-2,.11-3.07,0-2.42,0-4.84,0-7.26a4.06,4.06,0,0,0-.68-3c-.92-1.09-1.62-2.37-2.54-3.45-2.11-2.48-4.17-5-6.47-7.3a72.66,72.66,0,0,0-27.41-17.09A70.47,70.47,0,0,0,319.74,296a69.66,69.66,0,0,0-20.38,7.69A66.68,66.68,0,0,0,270,334.53a67.53,67.53,0,0,0-5,14.41,108.09,108.09,0,0,0-1.91,11.12,101.43,101.43,0,0,0,2.21,33.58,122.19,122.19,0,0,0,11.58,30.75,147.76,147.76,0,0,0,12.5,19.78c10,13.12,21.83,24.37,34.71,34.58,16.84,13.35,35.14,24.43,54,34.63,3.16,1.71,6.39,3.27,9.61,4.89,1.92,1,3.85,1.9,5.78,2.85m3.71-95.63v69.59q0,14,0,28.06c0,2.54-1,3.19-3.26,2.06-5.51-2.75-11.06-5.44-16.51-8.32a379.33,379.33,0,0,1-48.17-29.73,225.25,225.25,0,0,1-32.66-28.88,149.33,149.33,0,0,1-29.88-47.91,114.43,114.43,0,0,1-6.88-28.17c-1.52-13.35-.82-26.55,3.28-39.43a104.71,104.71,0,0,1,4.3-10.64,62.74,62.74,0,0,1,12.81-18.46A72.71,72.71,0,0,1,299,299.92a75.58,75.58,0,0,1,15.17-6.21,70.19,70.19,0,0,1,27-2,76.63,76.63,0,0,1,42.33,18.79,74.13,74.13,0,0,1,13.28,15.32,3.13,3.13,0,0,1,.48,1.63c0,6.78,0,13.56,0,20.34q0,38.87,0,77.71Z"/><path d="M395.75,531a9.23,9.23,0,0,1-4.14-1.08l-4.29-2.14c-4.05-2-8.23-4.08-12.32-6.24a385.25,385.25,0,0,1-48.84-30.15,230.33,230.33,0,0,1-33.42-29.56,155.29,155.29,0,0,1-30.92-49.59,120.74,120.74,0,0,1-7.2-29.46c-1.72-15.21-.58-28.83,3.5-41.63A98.32,98.32,0,0,1,262.19,331l.43-1a67.65,67.65,0,0,1,13.86-20,77.51,77.51,0,0,1,20.06-14.74,80.79,80.79,0,0,1,16.23-6.63,75.8,75.8,0,0,1,29-2.15,82.14,82.14,0,0,1,45.18,20.05,79.83,79.83,0,0,1,14.23,16.41,8.56,8.56,0,0,1,1.34,4.5q0,9.66,0,19.35l0,148.31q0,14,0,28.06c0,4-1.79,6-3.3,6.9A6.42,6.42,0,0,1,395.75,531Zm-63-231a60.5,60.5,0,0,0-30.9,8.27c-12.44,6.8-21.3,16.11-27.07,28.46a62.23,62.23,0,0,0-4.6,13.28,102,102,0,0,0-1.82,10.59,95.51,95.51,0,0,0,2.1,31.84,117.72,117.72,0,0,0,11.09,29.43A141.82,141.82,0,0,0,293.65,441c8.85,11.63,19.89,22.63,33.77,33.63,14.42,11.43,31.34,22.28,53.23,34.13,2.26,1.22,4.64,2.41,7,3.55l1,.5c0-1.25,0-2.51-.05-3.77,0-2.08-.06-4.15-.07-6.23,0-2.24,0-4.47,0-6.7,0-1.46,0-2.94,0-4.4V352.8q0-6.36,0-12.71c0-.62,0-1.23.06-1.84,0-.42.05-.84.05-1.26,0-1.33,0-2.65,0-4,0-1.1,0-2.19,0-3.29v-.26c-.38-.51-.72-1-1-1.44a15.49,15.49,0,0,0-.93-1.28l-1.13-1.33c-1.7-2-3.31-3.93-5-5.65A67.75,67.75,0,0,0,355,303.91,66.76,66.76,0,0,0,332.79,300Z"/><path class="cls-3" d="M393.53,521.12c-1.93-1-3.87-1.89-5.79-2.85-3.2-1.62-6.44-3.18-9.6-4.89-18.85-10.21-37.15-21.28-54-34.63-12.88-10.21-24.72-21.46-34.71-34.58a147.76,147.76,0,0,1-12.5-19.78,122.19,122.19,0,0,1-11.58-30.75,101.43,101.43,0,0,1-2.21-33.58,108.09,108.09,0,0,1,1.91-11.12,68.56,68.56,0,0,1,34.3-45.27A69.66,69.66,0,0,1,319.74,296a70.47,70.47,0,0,1,37.05,2.95A72.66,72.66,0,0,1,384.2,316c2.3,2.29,4.36,4.82,6.47,7.3.92,1.08,1.61,2.36,2.54,3.45a4.06,4.06,0,0,1,.68,3c0,2.42,0,4.84,0,7.26,0,1-.11,2.05-.11,3.07,0,7.36,0,14.72,0,22.08V491.69c0,3.69,0,7.38,0,11.07s.1,7.3.13,11c0,2.42,0,4.85,0,7.26l-.37.15"/><path class="cls-4" d="M414.21,694.35A284.61,284.61,0,1,1,615.45,611,282.7,282.7,0,0,1,414.21,694.35Zm0-557.19A272.59,272.59,0,1,0,607,217,270.78,270.78,0,0,0,414.21,137.16Z"/><circle class="cls-4" cx="63.79" cy="388.16" r="8.43"/><circle class="cls-4" cx="768.61" cy="390.35" r="8.43"/><path class="cls-1" d="M323.66,757.2l3.08-12.73c1.78-7.38,6.43-10.22,13.56-8.44a17.55,17.55,0,0,1,5.58,2.43.75.75,0,0,1,.29,1.15l-.92,1.88c-.22.51-.61.63-1.15.29a11.94,11.94,0,0,0-4.29-2c-4.91-1.18-7.95.76-9.24,6.1l-2.87,11.86c-1.32,5.44.55,8.57,5.41,9.74a13,13,0,0,0,5,.18c.59-.11.88.16.9.73l-.09,2.09a.8.8,0,0,1-.73.85,15.48,15.48,0,0,1-6.41-.26C324.68,769.33,321.85,764.69,323.66,757.2Z"/><path class="cls-1" d="M347.49,749.3c1.25-7.35,5.49-10.53,12.39-9.36s9.86,5.58,8.61,12.93L366.25,766c-1.25,7.35-5.51,10.63-12.41,9.46s-9.84-5.68-8.59-13Zm14.79,15.91,2.19-12.87c.87-5.13-.83-8-5.22-8.7s-6.92,1.36-7.8,6.49L349.27,763c-.89,5.18.82,8,5.2,8.75S361.4,770.38,362.28,765.21Z"/><path class="cls-1" d="M390.34,775.56a.75.75,0,0,1,.76.92l-.2,2.14a.77.77,0,0,1-.93.77l-16.92-1.63a.76.76,0,0,1-.76-.93l3.19-33.14a.76.76,0,0,1,.93-.76l2.34.22c.54.05.76.38.71.92l-2.9,30.16Z"/><path class="cls-1" d="M395.79,755.55c.2-7.45,4-11.2,10.95-11s10.55,4.14,10.35,11.59l-.36,13.34c-.19,7.45-4,11.3-11,11.12s-10.54-4.24-10.34-11.68Zm16.9,13.66.35-13.05c.14-5.2-2-7.76-6.4-7.88s-6.66,2.33-6.8,7.53l-.35,13c-.14,5.25,1.94,7.81,6.39,7.93S412.55,774.45,412.69,769.21Z"/><path class="cls-1" d="M451.67,777.73c0,.6-.24.92-.79.95l-2.2.14c-.55,0-.86-.25-.9-.85l-1.34-21.75a21.76,21.76,0,0,1,0-3.61l.07-.56-.45,0-7.42,17a1,1,0,0,1-1,.66l-.2,0a1.07,1.07,0,0,1-1-.54l-9.49-16-.45,0a21.22,21.22,0,0,1,.6,4.12l1.34,21.76a.79.79,0,0,1-.79,1l-2.2.13c-.55,0-.87-.24-.9-.84l-2-33.14a.78.78,0,0,1,.79-1l2.6-.16a1.14,1.14,0,0,1,1.09.59l8.61,14.6a15.82,15.82,0,0,1,1.33,2.92l.07.4.45,0a10.29,10.29,0,0,1,.9-3.36l6.75-15.64a1.13,1.13,0,0,1,1-.72l2.59-.16a.78.78,0,0,1,.9.85Z"/><path class="cls-1" d="M461.32,777.41c-.54.08-.88-.17-1-.77l-4.88-32.84a.77.77,0,0,1,.71-1l8-1.19c6.87-1,10.78,1.48,11.68,7.52.87,5.83-2,7.82-3.23,8.16l-.48.17.06.4a4.32,4.32,0,0,1,2.15.23,5.62,5.62,0,0,1,2.07,1,9.45,9.45,0,0,1,3.07,6c.93,6.28-2.41,10-10.07,11.15Zm.21-19.7,4.75-.7c4.4-.66,6.33-3,5.74-7s-3-5.63-7.52-4.95l-4.74.7Zm2.34,15.73,4.84-.72c5.15-.77,7.28-3.1,6.66-7.26s-3.43-5.76-8.48-5l-4.85.72Z"/><path class="cls-1" d="M487.76,773a.77.77,0,0,1-1-.67l-6.59-32.64a.76.76,0,0,1,.66-1l2.35-.48a.77.77,0,0,1,1,.67l6.59,32.64a.77.77,0,0,1-.67,1Z"/><path class="cls-1" d="M520.22,764.3c.35.58.19.93-.44,1.09l-2.38.61a.82.82,0,0,1-1-.5l-3.54-6.11-12.15,3.14-.14,7.06a.91.91,0,0,1-.74,1l-2.42.63c-.63.16-.94-.07-.91-.75l.86-34.66a.93.93,0,0,1,.74-.92l3.54-.91a.92.92,0,0,1,1.09.44Zm-19.47-5.41L511,756.25l-7.87-13.5a23.27,23.27,0,0,1-1.76-3.79l-.17-.47-.39.1a20.05,20.05,0,0,1,.33,4.67Z"/><circle class="cls-2" cx="273.01" cy="730.73" r="6.17"/><circle class="cls-2" cx="560.42" cy="730.73" r="6.17"/><path class="cls-1" d="M109.64,336.35a20.61,20.61,0,0,1-5.58,9.82,21.84,21.84,0,0,1-21,5.51l-32.54-8.46A21.55,21.55,0,0,1,35,328.44a21.61,21.61,0,0,1,5.35-21.08,21.79,21.79,0,0,1,9.48-5.49,21.33,21.33,0,0,1,11.3,0l4.8,1.23a.38.38,0,0,1,.31.53l-3.05,11.89a.39.39,0,0,1-.53.32l-4.8-1.24a8.82,8.82,0,0,0-6.53.76,7.63,7.63,0,0,0-4,5,7.22,7.22,0,0,0,1.06,6.49,9.62,9.62,0,0,0,5.38,3.53l32.57,8.36a9,9,0,0,0,6.85-.68,7.62,7.62,0,0,0,3.83-5,7.43,7.43,0,0,0-1.2-6.36,9.3,9.3,0,0,0-5.42-3.82l-4.8-1.23a.38.38,0,0,1-.31-.53l3.08-12a.37.37,0,0,1,.52-.31l4.81,1.23a21.57,21.57,0,0,1,10,5.57,22.58,22.58,0,0,1,5.75,9.45A20.35,20.35,0,0,1,109.64,336.35Z"/><path class="cls-1" d="M127.53,285.42a20.38,20.38,0,0,1-7.16,8.6,22.92,22.92,0,0,1-10.4,3.89,20.66,20.66,0,0,1-11.09-1.78L67.82,281.91a20.51,20.51,0,0,1-8.61-7.1,22,22,0,0,1-3.83-10.34,20.75,20.75,0,0,1,1.79-11,20.45,20.45,0,0,1,7.08-8.58,22.34,22.34,0,0,1,10.26-3.82,20.55,20.55,0,0,1,11,1.8l31.16,14a20.87,20.87,0,0,1,8.66,7.12,22.51,22.51,0,0,1,3.95,10.34A20.43,20.43,0,0,1,127.53,285.42ZM115.65,280a7.64,7.64,0,0,0,0-6.33A8.55,8.55,0,0,0,111.2,269L80,255a8.55,8.55,0,0,0-6.44-.4,7.6,7.6,0,0,0-4.66,4.26,7.91,7.91,0,0,0-.19,6.29,8.3,8.3,0,0,0,4.55,4.72L104.41,284a8.5,8.5,0,0,0,6.54.32A7.69,7.69,0,0,0,115.65,280Z"/><path class="cls-1" d="M142,253.81c-.17.24-.4.26-.69.05L80.43,211.65a.38.38,0,0,1-.11-.6l12.57-18.22a21.55,21.55,0,0,1,8.54-7.36,22.12,22.12,0,0,1,10.81-2.2,21.6,21.6,0,0,1,15.81,8.78,21.94,21.94,0,0,1,2.82,5.4,18.63,18.63,0,0,1,1,4.3,21.75,21.75,0,0,1,15.87,3.76L166,218a.48.48,0,0,1,.13.76l-7,10.19c-.17.24-.34.3-.52.18l-18.36-12.67a9.33,9.33,0,0,0-7.14-1.52,9.17,9.17,0,0,0-6.23,4l-4.11,6,26,18.08c.3.2.36.42.2.66Zm-29.83-36.28,5.34-7.76a8.49,8.49,0,0,0,1.38-6.37,8.16,8.16,0,0,0-9.81-6.83,8.4,8.4,0,0,0-5.49,3.6l-5.35,7.76Z"/><path class="cls-1" d="M172.42,210l-43.36-61.52a.52.52,0,0,1,.07-.7l11.13-11.34a.51.51,0,0,1,.69-.09l62,42.51a.39.39,0,0,1,.08.69l-8.52,8.68a.55.55,0,0,1-.77,0l-6.46-4.65-10.43,10.64,4.78,6.37a.57.57,0,0,1,0,.77l-8.52,8.69C172.91,210.31,172.68,210.28,172.42,210Zm-2.27-25.39,7.36-7.51-24.77-18-3.31-2.33,2.54,3.11Z"/><path class="cls-1" d="M209.14,174.16a.48.48,0,0,1-.76-.1l-6.91-9.5L193,108.05,172.57,123.2a.39.39,0,0,1-.61-.09L165.22,114q-.32-.43,0-.69L197.11,89.7a.49.49,0,0,1,.77.11l6.93,9.34,8.44,56.27,21.21-15.73c.23-.18.46-.12.67.17l7,9.2a.48.48,0,0,1-.12.75Z"/><path class="cls-1" d="M269,136a20.33,20.33,0,0,1-10.95,2.35A22.92,22.92,0,0,1,247.47,135a20.65,20.65,0,0,1-7.62-8.25L224.19,96.36a20.55,20.55,0,0,1-2.39-10.9A22,22,0,0,1,225.17,75a20.76,20.76,0,0,1,8.18-7.53,20.37,20.37,0,0,1,10.87-2.37,22.19,22.19,0,0,1,10.44,3.32,20.56,20.56,0,0,1,7.55,8.22l15.85,30.26a20.9,20.9,0,0,1,2.42,11,22.55,22.55,0,0,1-3.27,10.57A20.43,20.43,0,0,1,269,136Zm-6-11.56a7.67,7.67,0,0,0,3.89-5,8.61,8.61,0,0,0-.57-6.45L250.44,82.72a8.53,8.53,0,0,0-4.82-4.3,7.58,7.58,0,0,0-6.3.48,7.88,7.88,0,0,0-4,4.83,8.24,8.24,0,0,0,.67,6.52l15.75,30.31a8.58,8.58,0,0,0,5,4.29A7.73,7.73,0,0,0,263,124.42Z"/><path class="cls-1" d="M300.46,119.87c-.55.18-.91,0-1.06-.45L277,49.52a.77.77,0,0,1,.58-1.08l9.39-3,30.53,34.85L304.39,40.81c-.18-.54.05-.92.68-1.12L315.4,36.4c.42-.13.72.08.89.62l22.4,70c.13.41,0,.67-.32.78l-9.19,2.92-30.1-32,12.5,36.74c.18.55-.05.92-.68,1.12Z"/><path class="cls-1" d="M353.29,104.48c-.29,0-.46-.11-.51-.47L342.24,30.73c-.05-.28.08-.44.37-.49l34.81-5.06c.28,0,.46.12.51.47l1.73,12c0,.28-.08.44-.37.48l-22.23,3.24L359.48,58l22.23-3.23a.39.39,0,0,1,.5.36l1.86,12a.39.39,0,0,1-.37.49l-22.34,3.25,2.71,18.66,22.34-3.25c.29,0,.46.12.51.47l1.77,12.16a.38.38,0,0,1-.37.49Z"/><path class="cls-1" d="M421.23,99.65a20.42,20.42,0,0,1-10.74-3.14,22.47,22.47,0,0,1-7.66-8,20.88,20.88,0,0,1-2.73-10.87l.08-5c0-.36.19-.53.56-.53l12.27.2c.29,0,.43.18.43.54l-.08,5A8.48,8.48,0,0,0,415.67,84a7.86,7.86,0,0,0,11.62.13,8.54,8.54,0,0,0,2.5-6q.06-4-5.15-7L419.21,68q-3.69-2.1-6.95-4a22.79,22.79,0,0,1-8.79-8.81,23.75,23.75,0,0,1-2.72-11.84,20.13,20.13,0,0,1,3.13-10.79,21.91,21.91,0,0,1,7.95-7.47,21.34,21.34,0,0,1,21.25.39,21.76,21.76,0,0,1,7.66,7.77,20.3,20.3,0,0,1,2.74,10.77l-.14,8.83a.39.39,0,0,1-.45.43l-12.27-.2a.38.38,0,0,1-.43-.43l0-8.84a8.25,8.25,0,0,0-2.31-6.18,7.84,7.84,0,0,0-5.66-2.46,7.72,7.72,0,0,0-5.85,2.44,8.36,8.36,0,0,0-2.5,5.94,10.64,10.64,0,0,0,1.44,5.95,14.63,14.63,0,0,0,5.51,4.62c.36.22,1.07.61,2.12,1.16s2.19,1.19,3.42,1.89,2.34,1.31,3.32,1.83,1.57.85,1.79,1A26,26,0,0,1,440,67.55a17.75,17.75,0,0,1,3,10.77,21.26,21.26,0,0,1-3.08,11,21.51,21.51,0,0,1-7.9,7.64A21,21,0,0,1,421.23,99.65Z"/><path class="cls-1" d="M487.36,106.34c-.21-.06-.28-.22-.21-.5l7.59-29.65-3.6-45.81c0-.29.14-.41.42-.34l11.8,3c.35.09.53.28.53.58l.78,30.09,15.05-26.1a.53.53,0,0,1,.64-.29l11.9,3c.28.07.35.24.21.5L507.59,79l-7.48,30.13a.38.38,0,0,1-.53.31Z"/><path class="cls-1" d="M545.81,124.82c-.25-.14-.3-.37-.13-.68l35.37-65a.39.39,0,0,1,.59-.18l11.76,6.36a.94.94,0,0,1,.48.74l2,17.25,15.53-7.78a1,1,0,0,1,.88,0l11.86,6.4a.38.38,0,0,1,.18.59l-35,65.25c-.17.32-.38.4-.64.27l-10.89-5.89c-.26-.14-.31-.36-.13-.68l26-48.41L585.8,102l-2.24-19.82-26.21,48.31c-.17.31-.39.4-.64.26Z"/><path class="cls-1" d="M600.53,156.46c-.23-.19-.23-.42,0-.7L647,98.09a.39.39,0,0,1,.61-.06L675,120c.22.19.23.42,0,.7l-7.55,9.41a.39.39,0,0,1-.62.06l-17.51-14.06-10.53,13.12,17.52,14.06a.38.38,0,0,1,.07.61l-7.53,9.56a.38.38,0,0,1-.61.06l-17.61-14.12-11.8,14.7,17.6,14.13c.23.18.23.42,0,.7l-7.69,9.58a.39.39,0,0,1-.61.06Z"/><path class="cls-1" d="M639.74,189.33c-.39-.44-.39-.82,0-1.16l54.95-48.64a.77.77,0,0,1,1.23.09l6.52,7.4-19.58,42,30.83-27.93c.43-.38.86-.32,1.3.17l7.17,8.13c.29.33.22.69-.21,1.07l-55,48.71c-.33.28-.61.29-.85,0l-6.38-7.23,17.19-40.46-28.58,26.25c-.43.38-.87.32-1.3-.17Z"/><path class="cls-1" d="M680.44,240.42c-.15-.25-.08-.47.23-.65L733,207.51l-7.49-12.12a.48.48,0,0,1,.18-.75L736,188.39a.39.39,0,0,1,.6.15L758.43,224c.19.31.16.54-.08.69L748.08,231c-.31.19-.54.15-.69-.09l-7.54-12.22-52.22,32.35q-.46.28-.69-.09Z"/><path class="cls-1" d="M699.48,273.35c-.11-.27,0-.47.33-.61l68.53-28a.38.38,0,0,1,.56.24l13.37,32.53c.11.27,0,.48-.33.61l-11.17,4.59a.38.38,0,0,1-.56-.24l-8.54-20.78-15.55,6.39,8.54,20.78a.39.39,0,0,1-.23.57l-11.23,4.73a.38.38,0,0,1-.56-.24L734.06,273l-17.44,7.17,8.57,20.87c.11.27,0,.48-.33.61l-11.36,4.67a.39.39,0,0,1-.57-.24Z"/><path class="cls-1" d="M720.53,338.05a20.38,20.38,0,0,1,.48-11.18,22.45,22.45,0,0,1,5.94-9.34,20.83,20.83,0,0,1,9.91-5.24l4.83-1.11a.49.49,0,0,1,.65.41l2.73,12q.1.42-.42.54l-4.83,1.11a8.5,8.5,0,0,0-5.4,3.71,7.88,7.88,0,0,0,2.64,11.31,8.55,8.55,0,0,0,6.42,1q3.88-.89,5.55-6.66l1.72-6q1.17-4.08,2.22-7.7a22.82,22.82,0,0,1,6.46-10.64,23.75,23.75,0,0,1,10.86-5.46,20.15,20.15,0,0,1,11.21.46,21.92,21.92,0,0,1,9.16,5.94,21.4,21.4,0,0,1,4.69,20.74,21.92,21.92,0,0,1-5.72,9.29,20.33,20.33,0,0,1-9.81,5.22l-8.61,2a.38.38,0,0,1-.52-.33l-2.74-12a.38.38,0,0,1,.32-.52l8.59-2.08a8.26,8.26,0,0,0,5.45-3.72,7.83,7.83,0,0,0,1-6.09,7.73,7.73,0,0,0-3.76-5.09,8.41,8.41,0,0,0-6.37-1,10.68,10.68,0,0,0-5.43,2.82,14.67,14.67,0,0,0-3.17,6.46c-.13.4-.34,1.18-.63,2.33s-.62,2.41-1,3.78-.72,2.58-1,3.65-.45,1.73-.54,2a26.13,26.13,0,0,1-5.26,10.09,17.83,17.83,0,0,1-9.75,5.49,21.25,21.25,0,0,1-11.41-.37,21.63,21.63,0,0,1-9.3-5.85A21,21,0,0,1,720.53,338.05Z"/><path class="cls-2" d="M586.49,724.08l-3.8-7A347.16,347.16,0,0,0,765.31,411.21h8A355.16,355.16,0,0,1,586.49,724.08Z"/><path class="cls-2" d="M245.24,721.69A355.2,355.2,0,0,1,62.78,411.21h8A347.17,347.17,0,0,0,249.14,714.7Z"/></svg>