<svg id="Capa_1" data-name="Capa 1" xmlns="http://www.w3.org/2000/svg" viewBox="0 0 583.19 578.52"><defs><style>.cls-1{fill:#9679ff;}.cls-2{fill:#a8f2f2;}.cls-3{fill:#fff;}</style></defs><rect class="cls-1" x="94.41" y="56.37" width="92.85" height="72.95"/><circle class="cls-2" cx="451.48" cy="191" r="48.17" transform="translate(190.63 606.06) rotate(-80.78)"/><path class="cls-3" d="M450.55,431.61a47.08,47.08,0,0,0-44.53,32H128.55a49,49,0,0,1,0-98h96a79,79,0,0,0,0-158H141.09a47.21,47.21,0,0,0-29.54-29.53V141.61h81a15,15,0,0,0,15-15v-64a15,15,0,0,0-15-15h-96a15,15,0,0,0-15,15V178.08a47,47,0,1,0,59.54,59.53h83.46a49,49,0,0,1,0,98h-96a79,79,0,0,0,0,158H406a47,47,0,1,0,44.53-62Zm-339-354h66v34h-66Zm-15,162a17,17,0,1,1,17-17A17,17,0,0,1,96.55,239.61Zm354,256a17,17,0,1,1,17-17A17,17,0,0,1,450.55,495.61Z"/><path class="cls-3" d="M450.55,79.61a111,111,0,0,0-71.37,196l58,113.79a15,15,0,0,0,26.73,0l58-113.79a111,111,0,0,0-71.38-196ZM500.7,254.22a15.11,15.11,0,0,0-4.06,5l-46.09,90.4-46.08-90.4a15,15,0,0,0-4.07-5,81,81,0,1,1,100.3,0Z"/></svg>