<?xml version="1.0" encoding="utf-8"?>
<!-- Generator: Adobe Illustrator 25.4.1, SVG Export Plug-In . SVG Version: 6.00 Build 0)  -->
<svg version="1.1" id="Capa_1" xmlns="http://www.w3.org/2000/svg" xmlns:xlink="http://www.w3.org/1999/xlink" x="0px" y="0px"
	 viewBox="0 0 686.36 333.21" style="enable-background:new 0 0 686.36 333.21;" xml:space="preserve">
<style type="text/css">
	.st0{fill:#FFFFFF;}
	.st1{fill:#9679FF;}
	.st2{clip-path:url(#SVGID_00000147934687128626727180000004670479988077395119_);fill:#1A1A1A;}
	.st3{clip-path:url(#SVGID_00000147934687128626727180000004670479988077395119_);fill:#333333;}
	.st4{clip-path:url(#SVGID_00000147934687128626727180000004670479988077395119_);fill:#543DFF;}
	.st5{clip-path:url(#SVGID_00000147934687128626727180000004670479988077395119_);fill:#1D1D1B;}
	
		.st6{clip-path:url(#SVGID_00000147934687128626727180000004670479988077395119_);fill:none;stroke:#000000;stroke-width:7.5287;stroke-miterlimit:10;}
	.st7{clip-path:url(#SVGID_00000147934687128626727180000004670479988077395119_);fill:#9678FF;}
	
		.st8{clip-path:url(#SVGID_00000147934687128626727180000004670479988077395119_);fill:none;stroke:#000000;stroke-width:1.2544;stroke-miterlimit:10;}
	.st9{clip-path:url(#SVGID_00000147934687128626727180000004670479988077395119_);}
	
		.st10{clip-path:url(#SVGID_00000147934687128626727180000004670479988077395119_);fill:none;stroke:#000000;stroke-width:9.4126;stroke-miterlimit:10;}
	.st11{clip-path:url(#SVGID_00000147934687128626727180000004670479988077395119_);fill:#8AE5EE;}
	.st12{fill:#1A1A1A;}
	.st13{fill:#1D1D1B;}
	.st14{fill:none;stroke:#000000;stroke-width:8.4472;stroke-miterlimit:10;}
	.st15{fill:#9678FF;}
	.st16{fill:none;stroke:#000000;stroke-width:1.4079;stroke-miterlimit:10;}
	.st17{fill:none;stroke:#000000;stroke-width:10.5567;stroke-miterlimit:10;}
	.st18{fill:#8AE5EE;}
	.st19{fill:none;}
	.st20{clip-path:url(#SVGID_00000119828487440315423370000002736637144517465000_);}
	.st21{fill:#A8F2F2;}
	.st22{fill:#1C1C1B;stroke:#012336;stroke-width:8.7402;stroke-miterlimit:10;}
	.st23{stroke:#FFFFFF;stroke-width:4;stroke-miterlimit:10;}
	.st24{fill:none;stroke:#000000;stroke-width:10;stroke-miterlimit:10;}
	.st25{font-family:'MyriadPro-Regular';}
	.st26{font-size:41.6479px;}
</style>
<ellipse transform="matrix(0.1602 -0.9871 0.9871 0.1602 369.0562 565.5788)" class="st1" cx="516.91" cy="65.9" rx="48.17" ry="48.17"/>
<g>
	<g>
		<path d="M377.62,315.21L377.62,315.21l-4.05-57.26c-0.98-13.77-7.23-25.63-18.59-35.26c-8.01-6.79-18.62-12.56-32.33-17.61
			l4.14-15.3c1.31-4.83,0.49-9.65-2.23-13.21c-2.62-3.42-6.71-5.31-11.51-5.31h-15.04c7.7-8.52,13.81-18.37,17.35-28.53
			c12.2-1.23,23.59-8.61,23.59-21.56v-6.54c0-6.7-4.36-12.39-10.37-14.32c8.54-8.11,13.53-20.41,14.86-36.79l0.02-0.24
			c0.32-4.02,0.58-7.2-2.4-9.08c-3.02-1.9-6.18-0.07-8.48,1.27c-5.49,3.19-10.37,5.11-15.69,6.12
			C313,48.5,304.96,37.54,293.44,29.71c-10.92-7.42-24.88-11.87-39.3-12.53c-12.16-0.55-24.1,1.64-33.63,6.16
			c-9.37,4.45-16.08,10.86-19.6,18.69c-6.78,0.04-12.46,2.13-16.93,6.21c-8.86,8.1-10.18,21.83-10.18,29.29V99.6h-5.42
			c-8.22,0-14.91,6.74-14.91,15.03v6.54c0,12.95,11.38,20.33,23.59,21.56c3.49,9.92,9.63,19.88,17.42,28.53h-15.08
			c-4.81,0-8.9,1.89-11.53,5.31c-2.72,3.56-3.54,8.37-2.23,13.21l4.15,15.29c-20.13,7.41-33.93,16.63-42.1,28.1
			c-0.49,0.69-0.74,1.47-0.81,2.25c3.51,0.01,7.03,0.02,10.54,0.05c7.49-8.79,19.5-16.11,36.54-22.26l23.9,25.88
			c3.29-0.11,6.59-0.21,9.88-0.25c1.49-0.02,2.99-0.03,4.5-0.04l2.35-9.11l5.79-0.18c2.69,0.01,3.36,0.45,5.55,5.57l1.72,4
			c2.86,0.15,5.71,0.38,8.55,0.71c0.52-1.13,0.59-2.46,0.06-3.69l-1.99-4.6c-2-4.67-4.73-11.07-13.96-11.07c-0.05,0-0.1,0-0.14,0
			l-3.22,0.1l0.77-2.97c0.1-0.37,0.14-0.75,0.14-1.14v-26.45c3.22,1.76,6.48,3.26,9.76,4.47c6.8,2.52,12.7,3.7,18.58,3.7
			c5.88,0,11.78-1.18,18.57-3.7c3.32-1.23,6.59-2.74,9.78-4.49v26.46c0,0.38,0.05,0.76,0.14,1.13l0.74,2.87h-2.3
			c-9.2,0-11.95,6.39-13.96,11.07l-1.97,4.62c-0.99,2.31,0.08,4.98,2.39,5.96c0.58,0.25,1.19,0.37,1.78,0.37
			c1.76,0,3.44-1.03,4.18-2.76l1.97-4.61c2.22-5.15,2.88-5.56,5.61-5.56h4.64l3.37,13.06v13.98c-2.79,0.95-5.77,1.77-8.86,2.47
			c0,0.01,0.01,0.02,0.01,0.03c1.06,2.99,1.29,6.04,0.97,9.07c2.72-0.59,5.35-1.26,7.88-2.03v52.01l-34.95,0l-34.95,0v-15.71
			c-3.07,0.28-6.11,0.52-9.09,0.75v14.96l-32.62,0v-13.06c-3.03,0.1-6.06,0.18-9.09,0.24v12.81l-34.12,0
			c-1.34,0-2.57-1.19-2.49-2.28l0.78-11.08c-2.31-0.14-4.62-0.3-6.93-0.49c-0.75-0.06-1.46-0.27-2.11-0.58l-0.81,11.51
			c-0.21,3.04-0.1,6.5,2.28,9.05c2.42,2.6,6.05,2.95,9.27,2.95h38.66c0.04,0,0.07,0,0.11-0.01l200.96,0.01
			c3.23,0,6.85-0.35,9.27-2.95C377.74,321.7,377.84,318.25,377.62,315.21z M162.56,121.17v-6.54c0-3.22,2.67-5.95,5.83-5.95h5.42
			v16.22c0,2.75,0.26,5.52,0.73,8.23C167.96,131.59,162.56,127.53,162.56,121.17z M329.86,114.63v6.54c0,6.35-5.4,10.41-11.96,11.95
			c0.47-2.71,0.74-5.48,0.74-8.23v-16.22h5.42C327.2,108.69,329.86,111.41,329.86,114.63z M208.79,215.85L208.79,215.85l-4.38,16.96
			l-25.05-27.13l-4.96-18.27c-0.56-2.08-0.32-4.02,0.68-5.31c1.11-1.45,2.96-1.75,4.31-1.75h24.47c1.61,1.35,3.25,2.65,4.93,3.87
			V215.85z M261.62,185.94c-5.75,2.14-10.65,3.13-15.42,3.13c-4.77,0-9.66-1-15.43-3.14c-5.14-1.89-10.27-4.6-15.24-8.05
			c-14.52-10.08-26.31-25.71-30.77-40.79l0,0c-1.25-4.24-1.89-8.34-1.89-12.19v-19.44c7.58-11.64,20.17-20.44,28.86-15.42
			c7.67,4.44,16.59,8.22,26.5,11.25c2.4,0.73,4.94-0.62,5.67-3.02c0.73-2.4-0.62-4.94-3.02-5.67c-9.25-2.82-17.53-6.33-24.6-10.42
			c-10.76-6.22-23.61-0.81-33.41,8.94V77.55c0-4.8,0.7-16.62,7.23-22.59c3.3-3.02,7.7-4.23,13.46-3.72
			c2.12,0.19,4.08-1.11,4.73-3.14c4.45-13.87,23.13-22.84,45.43-21.84c20.17,0.91,45.53,11.04,53.93,36.27
			c-13.79,0.37-29.56-3.56-35.9-9.3c-1.86-1.68-4.73-1.54-6.42,0.32c-1.68,1.86-1.54,4.73,0.32,6.42
			c8.63,7.82,25.62,11.69,40.1,11.69c2.87,0,5.64-0.15,8.23-0.46c0,0,0.01,0,0.01,0c0.01,0,0.02,0,0.03,0c0,0,0.01,0,0.01,0
			c0,0,0,0,0,0c7.19-0.78,13.38-2.68,20.13-6.22c-1.92,18.27-8.84,29.64-21.12,34.7c-0.06,0.01-0.13,0.02-0.19,0.03
			c-16.65,1.51-35.2,0.66-52.34-2.41c-2.47-0.44-4.83,1.2-5.27,3.67c-0.44,2.47,1.2,4.83,3.67,5.27
			c12.13,2.17,24.93,3.28,37.35,3.28c4.5,0,8.94-0.15,13.28-0.44v15.84c0,0.48-0.01,0.96-0.03,1.44c-0.14,3.4-0.77,7-1.88,10.75
			C301.54,157.78,282.19,178.33,261.62,185.94z M285.78,224.13c-0.04-0.19-0.08-0.37-0.14-0.56l-1.99-7.71V184.2
			c1.68-1.22,3.33-2.5,4.94-3.85h24.46c1.35,0,3.19,0.3,4.3,1.75c0.99,1.3,1.24,3.23,0.68,5.31l-4.95,18.27l-25.06,27.13
			L285.78,224.13z M366.08,318.13l-34.14,0v-24.67c0-2.51-2.03-4.54-4.54-4.54s-4.54,2.03-4.54,4.54v24.67l-32.62,0v-74.33
			l28.24-30.56c29.95,10.81,44.6,25.28,46.03,45.37l4.05,57.27C368.64,316.95,367.42,318.13,366.08,318.13z"/>
		<path d="M270.33,75.54c-20.48-2.42-40.12-14.37-47.53-22.09c-1.74-1.81-4.61-1.87-6.42-0.13c-1.81,1.74-1.87,4.61-0.13,6.42
			c9.74,10.15,31.63,22.29,53.01,24.82c0.18,0.02,0.36,0.03,0.54,0.03c2.27,0,4.23-1.7,4.51-4.01
			C274.61,78.09,272.82,75.84,270.33,75.54z"/>
	</g>
</g>
<path d="M636.15,108.75H418.94c-11.93,0-21.64-9.71-21.64-21.64V56.55c0-11.93,9.71-21.64,21.64-21.64h218.16
	c6.3,0,12.28,2.74,16.39,7.51l11.43,13.25c6.54,7.58,7.04,18.56,1.22,26.71l-12.36,17.31C649.71,105.37,643.13,108.75,636.15,108.75
	z M418.94,44.91c-6.42,0-11.64,5.22-11.64,11.64v30.56c0,6.42,5.22,11.64,11.64,11.64h217.22c3.75,0,7.29-1.82,9.47-4.88
	l12.36-17.31c3.13-4.38,2.86-10.29-0.66-14.37l-11.43-13.25c-2.21-2.57-5.43-4.04-8.82-4.04H418.94z"/>
<path d="M636.15,202.53H418.94c-11.93,0-21.64-9.71-21.64-21.64v-30.56c0-11.93,9.71-21.64,21.64-21.64h218.16
	c6.3,0,12.28,2.74,16.39,7.51l11.43,13.25c6.54,7.58,7.04,18.56,1.22,26.71l-12.36,17.31C649.71,199.14,643.13,202.53,636.15,202.53
	z M418.94,138.68c-6.42,0-11.64,5.22-11.64,11.64v30.56c0,6.42,5.22,11.64,11.64,11.64h217.22c3.75,0,7.29-1.82,9.47-4.88
	l12.36-17.31c3.13-4.38,2.86-10.29-0.66-14.37l-11.43-13.25c-2.21-2.57-5.43-4.04-8.82-4.04H418.94z"/>
<path d="M636.15,296.31H418.94c-11.93,0-21.64-9.71-21.64-21.64V244.1c0-11.93,9.71-21.64,21.64-21.64h218.16
	c6.3,0,12.28,2.74,16.39,7.51l11.43,13.25c6.54,7.58,7.04,18.56,1.22,26.71l-12.36,17.31C649.71,292.92,643.13,296.31,636.15,296.31
	z M418.94,232.46c-6.42,0-11.64,5.22-11.64,11.64v30.56c0,6.42,5.22,11.64,11.64,11.64h217.22c3.75,0,7.29-1.82,9.47-4.88
	l12.36-17.31c3.13-4.38,2.86-10.29-0.66-14.37l-11.43-13.25c-2.21-2.57-5.43-4.04-8.82-4.04H418.94z"/>
<text transform="matrix(1 0 0 1 518.0181 83.6741)" class="st25 st26">X</text>
<path d="M225.79,307.28v-10l20.1,0v10v-5l-0.01,5L225.79,307.28z M213.76,307.28h-20.04v-10h20.04V307.28z M181.7,307.28h-20.04v-10
	h20.04V307.28z M149.63,307.28h-20.04v-10h20.04V307.28z M117.57,307.28H97.53v-10h20.04V307.28z M85.5,307.28H65.46v-10H85.5
	V307.28z M53.44,307.28H33.4v-10h20.04V307.28z M19.49,305.27c-7.61-3.54-12.52-11.24-12.52-19.63v-1.13h10v1.13
	c0,4.51,2.64,8.66,6.74,10.56L19.49,305.27z M260.2,301.82l-6.64-7.47c0.65-0.58,1.24-1.23,1.75-1.94l9.48-13.27l8.14,5.81
	l-9.48,13.27C262.5,299.53,261.41,300.74,260.2,301.82z M279.42,272.55l-9.81-1.95c0.15-0.74,0.22-1.51,0.22-2.27
	c0-2.79-1-5.49-2.83-7.6l-3.22-3.74l7.57-6.53l3.22,3.74c3.39,3.93,5.25,8.95,5.25,14.13C279.84,269.75,279.7,271.16,279.42,272.55z
	 M16.97,272.48h-10v-17.41c0-1.14,0.09-2.28,0.27-3.4l9.88,1.56c-0.09,0.6-0.14,1.22-0.14,1.84V272.48z M255.94,247.89l-0.35-0.41
	c-2.21-2.57-5.43-4.04-8.82-4.04h-5.2v-10h5.2c6.3,0,12.28,2.74,16.39,7.51l0.35,0.41L255.94,247.89z M21.2,246.1l-6.37-7.71
	c3.87-3.2,8.76-4.96,13.79-4.96h8.54v10h-8.54C25.87,243.43,23.31,244.35,21.2,246.1z M229.55,243.43h-20.04v-10h20.04V243.43z
	 M197.48,243.43h-20.04v-10h20.04V243.43z M165.42,243.43h-20.04v-10h20.04V243.43z M133.35,243.43h-20.04v-10h20.04V243.43z
	 M101.29,243.43H81.25v-10h20.04V243.43z M69.22,243.43H49.18v-10h20.04V243.43z"/>
<text transform="matrix(1 0 0 1 518.0181 176.453)" class="st25 st26">Y</text>
<text transform="matrix(1 0 0 1 518.0181 274.2201)" class="st25 st26">Z</text>
</svg>
